<mxfile host="Electron" agent="Mozilla/5.0 (Windows NT 10.0; Win64; x64) AppleWebKit/537.36 (KHTML, like Gecko) draw.io/24.7.5 Chrome/126.0.6478.183 Electron/31.3.0 Safari/537.36" version="24.7.5">
  <diagram name="Page-1" id="2RA1RaaOC9J_GYryIPZI">
    <mxGraphModel dx="2390" dy="2273" grid="1" gridSize="10" guides="1" tooltips="1" connect="1" arrows="1" fold="1" page="1" pageScale="1" pageWidth="1100" pageHeight="850" math="0" shadow="0">
      <root>
        <mxCell id="0" />
        <mxCell id="1" parent="0" />
        <mxCell id="gPIm2RjQlK1SHXglzXT1-37" value="" style="group;labelBackgroundColor=none;fontColor=#393C56;" vertex="1" connectable="0" parent="1">
          <mxGeometry x="40" y="110" width="320" height="140" as="geometry" />
        </mxCell>
        <mxCell id="gPIm2RjQlK1SHXglzXT1-1" value="&lt;font style=&quot;font-size: 18px;&quot;&gt;Branche&lt;/font&gt;" style="rounded=1;whiteSpace=wrap;html=1;labelBackgroundColor=none;fillColor=#F2CC8F;strokeColor=#E07A5F;fontColor=#393C56;" vertex="1" parent="gPIm2RjQlK1SHXglzXT1-37">
          <mxGeometry x="100" y="80" width="120" height="60" as="geometry" />
        </mxCell>
        <mxCell id="gPIm2RjQlK1SHXglzXT1-2" value="ID" style="ellipse;whiteSpace=wrap;html=1;labelBackgroundColor=none;fillColor=#F2CC8F;strokeColor=#E07A5F;fontColor=#393C56;" vertex="1" parent="gPIm2RjQlK1SHXglzXT1-37">
          <mxGeometry width="80" height="50" as="geometry" />
        </mxCell>
        <mxCell id="gPIm2RjQlK1SHXglzXT1-3" value="Address" style="ellipse;whiteSpace=wrap;html=1;labelBackgroundColor=none;fillColor=#F2CC8F;strokeColor=#E07A5F;fontColor=#393C56;" vertex="1" parent="gPIm2RjQlK1SHXglzXT1-37">
          <mxGeometry x="120" width="80" height="50" as="geometry" />
        </mxCell>
        <mxCell id="gPIm2RjQlK1SHXglzXT1-4" value="Contact no." style="ellipse;whiteSpace=wrap;html=1;labelBackgroundColor=none;fillColor=#F2CC8F;strokeColor=#E07A5F;fontColor=#393C56;" vertex="1" parent="gPIm2RjQlK1SHXglzXT1-37">
          <mxGeometry x="240" width="80" height="50" as="geometry" />
        </mxCell>
        <mxCell id="gPIm2RjQlK1SHXglzXT1-34" value="" style="endArrow=none;html=1;rounded=0;entryX=0;entryY=0;entryDx=0;entryDy=0;exitX=0.5;exitY=1;exitDx=0;exitDy=0;labelBackgroundColor=none;strokeColor=#E07A5F;fontColor=default;" edge="1" parent="gPIm2RjQlK1SHXglzXT1-37" source="gPIm2RjQlK1SHXglzXT1-2" target="gPIm2RjQlK1SHXglzXT1-1">
          <mxGeometry width="50" height="50" relative="1" as="geometry">
            <mxPoint x="10" y="140" as="sourcePoint" />
            <mxPoint x="60" y="90" as="targetPoint" />
          </mxGeometry>
        </mxCell>
        <mxCell id="gPIm2RjQlK1SHXglzXT1-35" value="" style="endArrow=none;html=1;rounded=0;entryX=0.5;entryY=0;entryDx=0;entryDy=0;exitX=0.5;exitY=1;exitDx=0;exitDy=0;labelBackgroundColor=none;strokeColor=#E07A5F;fontColor=default;" edge="1" parent="gPIm2RjQlK1SHXglzXT1-37" source="gPIm2RjQlK1SHXglzXT1-3" target="gPIm2RjQlK1SHXglzXT1-1">
          <mxGeometry width="50" height="50" relative="1" as="geometry">
            <mxPoint x="50" y="60" as="sourcePoint" />
            <mxPoint x="110" y="90" as="targetPoint" />
          </mxGeometry>
        </mxCell>
        <mxCell id="gPIm2RjQlK1SHXglzXT1-36" value="" style="endArrow=none;html=1;rounded=0;entryX=0.75;entryY=0;entryDx=0;entryDy=0;exitX=0;exitY=1;exitDx=0;exitDy=0;labelBackgroundColor=none;strokeColor=#E07A5F;fontColor=default;" edge="1" parent="gPIm2RjQlK1SHXglzXT1-37" source="gPIm2RjQlK1SHXglzXT1-4" target="gPIm2RjQlK1SHXglzXT1-1">
          <mxGeometry width="50" height="50" relative="1" as="geometry">
            <mxPoint x="170" y="60" as="sourcePoint" />
            <mxPoint x="170" y="90" as="targetPoint" />
          </mxGeometry>
        </mxCell>
        <mxCell id="gPIm2RjQlK1SHXglzXT1-41" value="" style="group;labelBackgroundColor=none;fontColor=#393C56;" vertex="1" connectable="0" parent="1">
          <mxGeometry x="600" y="-30" width="300" height="130" as="geometry" />
        </mxCell>
        <mxCell id="gPIm2RjQlK1SHXglzXT1-16" value="&lt;span style=&quot;font-size: 18px;&quot;&gt;Customer&lt;/span&gt;" style="rounded=1;whiteSpace=wrap;html=1;labelBackgroundColor=none;fillColor=#F2CC8F;strokeColor=#E07A5F;fontColor=#393C56;" vertex="1" parent="gPIm2RjQlK1SHXglzXT1-41">
          <mxGeometry x="90" y="70" width="120" height="60" as="geometry" />
        </mxCell>
        <mxCell id="gPIm2RjQlK1SHXglzXT1-17" value="Code" style="ellipse;whiteSpace=wrap;html=1;labelBackgroundColor=none;fillColor=#F2CC8F;strokeColor=#E07A5F;fontColor=#393C56;" vertex="1" parent="gPIm2RjQlK1SHXglzXT1-41">
          <mxGeometry width="80" height="50" as="geometry" />
        </mxCell>
        <mxCell id="gPIm2RjQlK1SHXglzXT1-18" value="Name" style="ellipse;whiteSpace=wrap;html=1;labelBackgroundColor=none;fillColor=#F2CC8F;strokeColor=#E07A5F;fontColor=#393C56;" vertex="1" parent="gPIm2RjQlK1SHXglzXT1-41">
          <mxGeometry x="110" width="80" height="50" as="geometry" />
        </mxCell>
        <mxCell id="gPIm2RjQlK1SHXglzXT1-19" value="Contact no." style="ellipse;whiteSpace=wrap;html=1;labelBackgroundColor=none;fillColor=#F2CC8F;strokeColor=#E07A5F;fontColor=#393C56;" vertex="1" parent="gPIm2RjQlK1SHXglzXT1-41">
          <mxGeometry x="220" width="80" height="50" as="geometry" />
        </mxCell>
        <mxCell id="gPIm2RjQlK1SHXglzXT1-38" value="" style="endArrow=none;html=1;rounded=0;entryX=0.5;entryY=1;entryDx=0;entryDy=0;exitX=0.25;exitY=0;exitDx=0;exitDy=0;labelBackgroundColor=none;strokeColor=#E07A5F;fontColor=default;" edge="1" parent="gPIm2RjQlK1SHXglzXT1-41" source="gPIm2RjQlK1SHXglzXT1-16" target="gPIm2RjQlK1SHXglzXT1-17">
          <mxGeometry width="50" height="50" relative="1" as="geometry">
            <mxPoint x="20" y="130" as="sourcePoint" />
            <mxPoint x="70" y="80" as="targetPoint" />
          </mxGeometry>
        </mxCell>
        <mxCell id="gPIm2RjQlK1SHXglzXT1-39" value="" style="endArrow=none;html=1;rounded=0;entryX=0.5;entryY=1;entryDx=0;entryDy=0;exitX=0.5;exitY=0;exitDx=0;exitDy=0;labelBackgroundColor=none;strokeColor=#E07A5F;fontColor=default;" edge="1" parent="gPIm2RjQlK1SHXglzXT1-41" source="gPIm2RjQlK1SHXglzXT1-16" target="gPIm2RjQlK1SHXglzXT1-18">
          <mxGeometry width="50" height="50" relative="1" as="geometry">
            <mxPoint x="130" y="80" as="sourcePoint" />
            <mxPoint x="50" y="60" as="targetPoint" />
          </mxGeometry>
        </mxCell>
        <mxCell id="gPIm2RjQlK1SHXglzXT1-40" value="" style="endArrow=none;html=1;rounded=0;entryX=0;entryY=1;entryDx=0;entryDy=0;exitX=0.75;exitY=0;exitDx=0;exitDy=0;labelBackgroundColor=none;strokeColor=#E07A5F;fontColor=default;" edge="1" parent="gPIm2RjQlK1SHXglzXT1-41" source="gPIm2RjQlK1SHXglzXT1-16" target="gPIm2RjQlK1SHXglzXT1-19">
          <mxGeometry width="50" height="50" relative="1" as="geometry">
            <mxPoint x="160" y="80" as="sourcePoint" />
            <mxPoint x="160" y="60" as="targetPoint" />
          </mxGeometry>
        </mxCell>
        <mxCell id="gPIm2RjQlK1SHXglzXT1-52" value="" style="group;labelBackgroundColor=none;fontColor=#393C56;" vertex="1" connectable="0" parent="1">
          <mxGeometry x="40" y="650" width="420" height="190" as="geometry" />
        </mxCell>
        <mxCell id="gPIm2RjQlK1SHXglzXT1-6" value="&lt;font style=&quot;font-size: 18px;&quot;&gt;Staff&lt;/font&gt;" style="rounded=1;whiteSpace=wrap;html=1;labelBackgroundColor=none;fillColor=#F2CC8F;strokeColor=#E07A5F;fontColor=#393C56;" vertex="1" parent="gPIm2RjQlK1SHXglzXT1-52">
          <mxGeometry x="100" y="30" width="120" height="60" as="geometry" />
        </mxCell>
        <mxCell id="gPIm2RjQlK1SHXglzXT1-7" value="ID" style="ellipse;whiteSpace=wrap;html=1;labelBackgroundColor=none;fillColor=#F2CC8F;strokeColor=#E07A5F;fontColor=#393C56;" vertex="1" parent="gPIm2RjQlK1SHXglzXT1-52">
          <mxGeometry width="80" height="50" as="geometry" />
        </mxCell>
        <mxCell id="gPIm2RjQlK1SHXglzXT1-8" value="Name" style="ellipse;whiteSpace=wrap;html=1;labelBackgroundColor=none;fillColor=#F2CC8F;strokeColor=#E07A5F;fontColor=#393C56;" vertex="1" parent="gPIm2RjQlK1SHXglzXT1-52">
          <mxGeometry y="55" width="80" height="50" as="geometry" />
        </mxCell>
        <mxCell id="gPIm2RjQlK1SHXglzXT1-9" value="age" style="ellipse;whiteSpace=wrap;html=1;labelBackgroundColor=none;fillColor=#F2CC8F;strokeColor=#E07A5F;fontColor=#393C56;" vertex="1" parent="gPIm2RjQlK1SHXglzXT1-52">
          <mxGeometry y="110" width="80" height="50" as="geometry" />
        </mxCell>
        <mxCell id="gPIm2RjQlK1SHXglzXT1-10" value="Address" style="ellipse;whiteSpace=wrap;html=1;labelBackgroundColor=none;fillColor=#F2CC8F;strokeColor=#E07A5F;fontColor=#393C56;" vertex="1" parent="gPIm2RjQlK1SHXglzXT1-52">
          <mxGeometry x="240" y="50" width="80" height="50" as="geometry" />
        </mxCell>
        <mxCell id="gPIm2RjQlK1SHXglzXT1-11" value="City" style="ellipse;whiteSpace=wrap;html=1;labelBackgroundColor=none;fillColor=#F2CC8F;strokeColor=#E07A5F;fontColor=#393C56;" vertex="1" parent="gPIm2RjQlK1SHXglzXT1-52">
          <mxGeometry x="340" y="20" width="80" height="50" as="geometry" />
        </mxCell>
        <mxCell id="gPIm2RjQlK1SHXglzXT1-12" value="region" style="ellipse;whiteSpace=wrap;html=1;labelBackgroundColor=none;fillColor=#F2CC8F;strokeColor=#E07A5F;fontColor=#393C56;" vertex="1" parent="gPIm2RjQlK1SHXglzXT1-52">
          <mxGeometry x="340" y="80" width="80" height="50" as="geometry" />
        </mxCell>
        <mxCell id="gPIm2RjQlK1SHXglzXT1-13" value="Role" style="ellipse;whiteSpace=wrap;html=1;labelBackgroundColor=none;fillColor=#F2CC8F;strokeColor=#E07A5F;fontColor=#393C56;" vertex="1" parent="gPIm2RjQlK1SHXglzXT1-52">
          <mxGeometry x="160" y="140" width="80" height="50" as="geometry" />
        </mxCell>
        <mxCell id="gPIm2RjQlK1SHXglzXT1-14" value="joining date" style="ellipse;whiteSpace=wrap;html=1;labelBackgroundColor=none;fillColor=#F2CC8F;strokeColor=#E07A5F;fontColor=#393C56;" vertex="1" parent="gPIm2RjQlK1SHXglzXT1-52">
          <mxGeometry x="74" y="140" width="80" height="50" as="geometry" />
        </mxCell>
        <mxCell id="gPIm2RjQlK1SHXglzXT1-15" value="Salary" style="ellipse;whiteSpace=wrap;html=1;labelBackgroundColor=none;fillColor=#F2CC8F;strokeColor=#E07A5F;fontColor=#393C56;" vertex="1" parent="gPIm2RjQlK1SHXglzXT1-52">
          <mxGeometry x="243" y="119" width="80" height="50" as="geometry" />
        </mxCell>
        <mxCell id="gPIm2RjQlK1SHXglzXT1-42" value="" style="endArrow=none;html=1;rounded=0;entryX=1;entryY=0.5;entryDx=0;entryDy=0;exitX=0.25;exitY=0;exitDx=0;exitDy=0;labelBackgroundColor=none;strokeColor=#E07A5F;fontColor=default;" edge="1" parent="gPIm2RjQlK1SHXglzXT1-52" source="gPIm2RjQlK1SHXglzXT1-6" target="gPIm2RjQlK1SHXglzXT1-7">
          <mxGeometry width="50" height="50" relative="1" as="geometry">
            <mxPoint x="140" y="20" as="sourcePoint" />
            <mxPoint x="190" y="-30" as="targetPoint" />
          </mxGeometry>
        </mxCell>
        <mxCell id="gPIm2RjQlK1SHXglzXT1-43" value="" style="endArrow=none;html=1;rounded=0;entryX=1;entryY=0;entryDx=0;entryDy=0;exitX=0;exitY=0.25;exitDx=0;exitDy=0;labelBackgroundColor=none;strokeColor=#E07A5F;fontColor=default;" edge="1" parent="gPIm2RjQlK1SHXglzXT1-52" source="gPIm2RjQlK1SHXglzXT1-6" target="gPIm2RjQlK1SHXglzXT1-8">
          <mxGeometry width="50" height="50" relative="1" as="geometry">
            <mxPoint x="140" y="40" as="sourcePoint" />
            <mxPoint x="90" y="35" as="targetPoint" />
          </mxGeometry>
        </mxCell>
        <mxCell id="gPIm2RjQlK1SHXglzXT1-44" value="" style="endArrow=none;html=1;rounded=0;entryX=1;entryY=0;entryDx=0;entryDy=0;exitX=0;exitY=0.5;exitDx=0;exitDy=0;labelBackgroundColor=none;strokeColor=#E07A5F;fontColor=default;" edge="1" parent="gPIm2RjQlK1SHXglzXT1-52" source="gPIm2RjQlK1SHXglzXT1-6" target="gPIm2RjQlK1SHXglzXT1-9">
          <mxGeometry width="50" height="50" relative="1" as="geometry">
            <mxPoint x="110" y="55" as="sourcePoint" />
            <mxPoint x="78" y="72" as="targetPoint" />
          </mxGeometry>
        </mxCell>
        <mxCell id="gPIm2RjQlK1SHXglzXT1-45" value="" style="endArrow=none;html=1;rounded=0;entryX=0.25;entryY=1;entryDx=0;entryDy=0;exitX=0.5;exitY=0;exitDx=0;exitDy=0;labelBackgroundColor=none;strokeColor=#E07A5F;fontColor=default;" edge="1" parent="gPIm2RjQlK1SHXglzXT1-52" source="gPIm2RjQlK1SHXglzXT1-14" target="gPIm2RjQlK1SHXglzXT1-6">
          <mxGeometry width="50" height="50" relative="1" as="geometry">
            <mxPoint x="120" y="65" as="sourcePoint" />
            <mxPoint x="88" y="82" as="targetPoint" />
          </mxGeometry>
        </mxCell>
        <mxCell id="gPIm2RjQlK1SHXglzXT1-46" value="" style="endArrow=none;html=1;rounded=0;entryX=0.5;entryY=1;entryDx=0;entryDy=0;exitX=0.5;exitY=0;exitDx=0;exitDy=0;labelBackgroundColor=none;strokeColor=#E07A5F;fontColor=default;" edge="1" parent="gPIm2RjQlK1SHXglzXT1-52" source="gPIm2RjQlK1SHXglzXT1-13" target="gPIm2RjQlK1SHXglzXT1-6">
          <mxGeometry width="50" height="50" relative="1" as="geometry">
            <mxPoint x="124" y="150" as="sourcePoint" />
            <mxPoint x="140" y="100" as="targetPoint" />
          </mxGeometry>
        </mxCell>
        <mxCell id="gPIm2RjQlK1SHXglzXT1-47" value="" style="endArrow=none;html=1;rounded=0;entryX=0.75;entryY=1;entryDx=0;entryDy=0;exitX=0;exitY=0;exitDx=0;exitDy=0;labelBackgroundColor=none;strokeColor=#E07A5F;fontColor=default;" edge="1" parent="gPIm2RjQlK1SHXglzXT1-52" source="gPIm2RjQlK1SHXglzXT1-15" target="gPIm2RjQlK1SHXglzXT1-6">
          <mxGeometry width="50" height="50" relative="1" as="geometry">
            <mxPoint x="210" y="150" as="sourcePoint" />
            <mxPoint x="170" y="100" as="targetPoint" />
          </mxGeometry>
        </mxCell>
        <mxCell id="gPIm2RjQlK1SHXglzXT1-48" value="" style="endArrow=none;html=1;rounded=0;entryX=1;entryY=0.5;entryDx=0;entryDy=0;exitX=0;exitY=0.5;exitDx=0;exitDy=0;labelBackgroundColor=none;strokeColor=#E07A5F;fontColor=default;" edge="1" parent="gPIm2RjQlK1SHXglzXT1-52" source="gPIm2RjQlK1SHXglzXT1-10" target="gPIm2RjQlK1SHXglzXT1-6">
          <mxGeometry width="50" height="50" relative="1" as="geometry">
            <mxPoint x="265" y="136" as="sourcePoint" />
            <mxPoint x="200" y="100" as="targetPoint" />
          </mxGeometry>
        </mxCell>
        <mxCell id="gPIm2RjQlK1SHXglzXT1-49" value="" style="endArrow=none;html=1;rounded=0;entryX=0;entryY=0.5;entryDx=0;entryDy=0;exitX=1;exitY=0.5;exitDx=0;exitDy=0;labelBackgroundColor=none;strokeColor=#E07A5F;fontColor=default;" edge="1" parent="gPIm2RjQlK1SHXglzXT1-52" source="gPIm2RjQlK1SHXglzXT1-10" target="gPIm2RjQlK1SHXglzXT1-11">
          <mxGeometry width="50" height="50" relative="1" as="geometry">
            <mxPoint x="250" y="85" as="sourcePoint" />
            <mxPoint x="230" y="70" as="targetPoint" />
          </mxGeometry>
        </mxCell>
        <mxCell id="gPIm2RjQlK1SHXglzXT1-51" value="" style="endArrow=none;html=1;rounded=0;entryX=0;entryY=0.5;entryDx=0;entryDy=0;exitX=1;exitY=0.5;exitDx=0;exitDy=0;labelBackgroundColor=none;strokeColor=#E07A5F;fontColor=default;" edge="1" parent="gPIm2RjQlK1SHXglzXT1-52" source="gPIm2RjQlK1SHXglzXT1-10" target="gPIm2RjQlK1SHXglzXT1-12">
          <mxGeometry width="50" height="50" relative="1" as="geometry">
            <mxPoint x="330" y="85" as="sourcePoint" />
            <mxPoint x="350" y="55" as="targetPoint" />
          </mxGeometry>
        </mxCell>
        <mxCell id="gPIm2RjQlK1SHXglzXT1-55" value="" style="group;labelBackgroundColor=none;fontColor=#393C56;" vertex="1" connectable="0" parent="1">
          <mxGeometry x="330" y="450" width="180" height="130" as="geometry" />
        </mxCell>
        <mxCell id="gPIm2RjQlK1SHXglzXT1-31" value="&lt;font style=&quot;font-size: 18px;&quot;&gt;Delivery&lt;/font&gt;" style="rounded=1;whiteSpace=wrap;html=1;labelBackgroundColor=none;fillColor=#F2CC8F;strokeColor=#E07A5F;fontColor=#393C56;" vertex="1" parent="gPIm2RjQlK1SHXglzXT1-55">
          <mxGeometry x="30" width="120" height="60" as="geometry" />
        </mxCell>
        <mxCell id="gPIm2RjQlK1SHXglzXT1-32" value="Contact no." style="ellipse;whiteSpace=wrap;html=1;labelBackgroundColor=none;fillColor=#F2CC8F;strokeColor=#E07A5F;fontColor=#393C56;" vertex="1" parent="gPIm2RjQlK1SHXglzXT1-55">
          <mxGeometry y="80" width="80" height="50" as="geometry" />
        </mxCell>
        <mxCell id="gPIm2RjQlK1SHXglzXT1-33" value="Name" style="ellipse;whiteSpace=wrap;html=1;labelBackgroundColor=none;fillColor=#F2CC8F;strokeColor=#E07A5F;fontColor=#393C56;" vertex="1" parent="gPIm2RjQlK1SHXglzXT1-55">
          <mxGeometry x="100" y="80" width="80" height="50" as="geometry" />
        </mxCell>
        <mxCell id="gPIm2RjQlK1SHXglzXT1-53" value="" style="endArrow=none;html=1;rounded=0;entryX=0.5;entryY=1;entryDx=0;entryDy=0;exitX=0.5;exitY=0;exitDx=0;exitDy=0;labelBackgroundColor=none;strokeColor=#E07A5F;fontColor=default;" edge="1" parent="gPIm2RjQlK1SHXglzXT1-55" source="gPIm2RjQlK1SHXglzXT1-32" target="gPIm2RjQlK1SHXglzXT1-31">
          <mxGeometry width="50" height="50" relative="1" as="geometry">
            <mxPoint x="-60" y="80" as="sourcePoint" />
            <mxPoint x="-10" y="30" as="targetPoint" />
          </mxGeometry>
        </mxCell>
        <mxCell id="gPIm2RjQlK1SHXglzXT1-54" value="" style="endArrow=none;html=1;rounded=0;entryX=0.5;entryY=1;entryDx=0;entryDy=0;exitX=0.5;exitY=0;exitDx=0;exitDy=0;labelBackgroundColor=none;strokeColor=#E07A5F;fontColor=default;" edge="1" parent="gPIm2RjQlK1SHXglzXT1-55" source="gPIm2RjQlK1SHXglzXT1-33" target="gPIm2RjQlK1SHXglzXT1-31">
          <mxGeometry width="50" height="50" relative="1" as="geometry">
            <mxPoint x="50" y="90" as="sourcePoint" />
            <mxPoint x="100" y="70" as="targetPoint" />
          </mxGeometry>
        </mxCell>
        <mxCell id="gPIm2RjQlK1SHXglzXT1-60" value="" style="group;labelBackgroundColor=none;fontColor=#393C56;" vertex="1" connectable="0" parent="1">
          <mxGeometry x="590" y="380" width="240" height="180" as="geometry" />
        </mxCell>
        <mxCell id="gPIm2RjQlK1SHXglzXT1-20" value="&lt;font style=&quot;font-size: 18px;&quot;&gt;Item&lt;/font&gt;" style="rounded=1;whiteSpace=wrap;html=1;perimeter=rectanglePerimeter;labelBackgroundColor=none;fillColor=#F2CC8F;strokeColor=#E07A5F;fontColor=#393C56;" vertex="1" parent="gPIm2RjQlK1SHXglzXT1-60">
          <mxGeometry y="75" width="120" height="60" as="geometry" />
        </mxCell>
        <mxCell id="gPIm2RjQlK1SHXglzXT1-21" value="Code" style="ellipse;whiteSpace=wrap;html=1;labelBackgroundColor=none;fillColor=#F2CC8F;strokeColor=#E07A5F;fontColor=#393C56;" vertex="1" parent="gPIm2RjQlK1SHXglzXT1-60">
          <mxGeometry x="60" width="80" height="50" as="geometry" />
        </mxCell>
        <mxCell id="gPIm2RjQlK1SHXglzXT1-22" value="Name" style="ellipse;whiteSpace=wrap;html=1;labelBackgroundColor=none;fillColor=#F2CC8F;strokeColor=#E07A5F;fontColor=#393C56;" vertex="1" parent="gPIm2RjQlK1SHXglzXT1-60">
          <mxGeometry x="160" width="80" height="50" as="geometry" />
        </mxCell>
        <mxCell id="gPIm2RjQlK1SHXglzXT1-23" value="Price" style="ellipse;whiteSpace=wrap;html=1;labelBackgroundColor=none;fillColor=#F2CC8F;strokeColor=#E07A5F;fontColor=#393C56;" vertex="1" parent="gPIm2RjQlK1SHXglzXT1-60">
          <mxGeometry x="160" y="70" width="80" height="50" as="geometry" />
        </mxCell>
        <mxCell id="gPIm2RjQlK1SHXglzXT1-24" value="Category" style="ellipse;whiteSpace=wrap;html=1;labelBackgroundColor=none;fillColor=#F2CC8F;strokeColor=#E07A5F;fontColor=#393C56;" vertex="1" parent="gPIm2RjQlK1SHXglzXT1-60">
          <mxGeometry x="160" y="130" width="80" height="50" as="geometry" />
        </mxCell>
        <mxCell id="gPIm2RjQlK1SHXglzXT1-56" value="" style="endArrow=none;html=1;rounded=0;entryX=0.5;entryY=1;entryDx=0;entryDy=0;exitX=0.75;exitY=0;exitDx=0;exitDy=0;labelBackgroundColor=none;strokeColor=#E07A5F;fontColor=default;" edge="1" parent="gPIm2RjQlK1SHXglzXT1-60" source="gPIm2RjQlK1SHXglzXT1-20" target="gPIm2RjQlK1SHXglzXT1-21">
          <mxGeometry width="50" height="50" relative="1" as="geometry">
            <mxPoint x="60" y="100" as="sourcePoint" />
            <mxPoint x="110" y="50" as="targetPoint" />
          </mxGeometry>
        </mxCell>
        <mxCell id="gPIm2RjQlK1SHXglzXT1-57" value="" style="endArrow=none;html=1;rounded=0;entryX=0;entryY=1;entryDx=0;entryDy=0;exitX=1;exitY=0.25;exitDx=0;exitDy=0;labelBackgroundColor=none;strokeColor=#E07A5F;fontColor=default;" edge="1" parent="gPIm2RjQlK1SHXglzXT1-60" source="gPIm2RjQlK1SHXglzXT1-20" target="gPIm2RjQlK1SHXglzXT1-22">
          <mxGeometry width="50" height="50" relative="1" as="geometry">
            <mxPoint x="100" y="85" as="sourcePoint" />
            <mxPoint x="110" y="60" as="targetPoint" />
          </mxGeometry>
        </mxCell>
        <mxCell id="gPIm2RjQlK1SHXglzXT1-58" value="" style="endArrow=none;html=1;rounded=0;entryX=0;entryY=0.5;entryDx=0;entryDy=0;exitX=1;exitY=0.5;exitDx=0;exitDy=0;labelBackgroundColor=none;strokeColor=#E07A5F;fontColor=default;" edge="1" parent="gPIm2RjQlK1SHXglzXT1-60" source="gPIm2RjQlK1SHXglzXT1-20" target="gPIm2RjQlK1SHXglzXT1-23">
          <mxGeometry width="50" height="50" relative="1" as="geometry">
            <mxPoint x="130" y="100" as="sourcePoint" />
            <mxPoint x="182" y="53" as="targetPoint" />
          </mxGeometry>
        </mxCell>
        <mxCell id="gPIm2RjQlK1SHXglzXT1-59" value="" style="endArrow=none;html=1;rounded=0;entryX=0;entryY=0.5;entryDx=0;entryDy=0;exitX=1;exitY=0.75;exitDx=0;exitDy=0;labelBackgroundColor=none;strokeColor=#E07A5F;fontColor=default;" edge="1" parent="gPIm2RjQlK1SHXglzXT1-60" source="gPIm2RjQlK1SHXglzXT1-20" target="gPIm2RjQlK1SHXglzXT1-24">
          <mxGeometry width="50" height="50" relative="1" as="geometry">
            <mxPoint x="130" y="115" as="sourcePoint" />
            <mxPoint x="170" y="105" as="targetPoint" />
          </mxGeometry>
        </mxCell>
        <mxCell id="gPIm2RjQlK1SHXglzXT1-66" value="" style="group;labelBackgroundColor=none;fontColor=#393C56;" vertex="1" connectable="0" parent="1">
          <mxGeometry x="840" y="150" width="230" height="230" as="geometry" />
        </mxCell>
        <mxCell id="gPIm2RjQlK1SHXglzXT1-25" value="&lt;font style=&quot;font-size: 18px;&quot;&gt;Order&lt;/font&gt;" style="rounded=1;whiteSpace=wrap;html=1;labelBackgroundColor=none;fillColor=#F2CC8F;strokeColor=#E07A5F;fontColor=#393C56;" vertex="1" parent="gPIm2RjQlK1SHXglzXT1-66">
          <mxGeometry y="80" width="120" height="60" as="geometry" />
        </mxCell>
        <mxCell id="gPIm2RjQlK1SHXglzXT1-26" value="ID" style="ellipse;whiteSpace=wrap;html=1;labelBackgroundColor=none;fillColor=#F2CC8F;strokeColor=#E07A5F;fontColor=#393C56;" vertex="1" parent="gPIm2RjQlK1SHXglzXT1-66">
          <mxGeometry x="30" width="80" height="50" as="geometry" />
        </mxCell>
        <mxCell id="gPIm2RjQlK1SHXglzXT1-27" value="Address" style="ellipse;whiteSpace=wrap;html=1;labelBackgroundColor=none;fillColor=#F2CC8F;strokeColor=#E07A5F;fontColor=#393C56;" vertex="1" parent="gPIm2RjQlK1SHXglzXT1-66">
          <mxGeometry x="130" width="80" height="50" as="geometry" />
        </mxCell>
        <mxCell id="gPIm2RjQlK1SHXglzXT1-28" value="Total bill" style="ellipse;whiteSpace=wrap;html=1;labelBackgroundColor=none;fillColor=#F2CC8F;strokeColor=#E07A5F;fontColor=#393C56;" vertex="1" parent="gPIm2RjQlK1SHXglzXT1-66">
          <mxGeometry x="150" y="70" width="80" height="50" as="geometry" />
        </mxCell>
        <mxCell id="gPIm2RjQlK1SHXglzXT1-29" value="Date" style="ellipse;whiteSpace=wrap;html=1;labelBackgroundColor=none;fillColor=#F2CC8F;strokeColor=#E07A5F;fontColor=#393C56;" vertex="1" parent="gPIm2RjQlK1SHXglzXT1-66">
          <mxGeometry x="150" y="140" width="80" height="50" as="geometry" />
        </mxCell>
        <mxCell id="gPIm2RjQlK1SHXglzXT1-30" value="Time" style="ellipse;whiteSpace=wrap;html=1;labelBackgroundColor=none;fillColor=#F2CC8F;strokeColor=#E07A5F;fontColor=#393C56;" vertex="1" parent="gPIm2RjQlK1SHXglzXT1-66">
          <mxGeometry x="70" y="180" width="80" height="50" as="geometry" />
        </mxCell>
        <mxCell id="gPIm2RjQlK1SHXglzXT1-61" value="" style="endArrow=none;html=1;rounded=0;entryX=0.5;entryY=1;entryDx=0;entryDy=0;exitX=0.5;exitY=0;exitDx=0;exitDy=0;labelBackgroundColor=none;strokeColor=#E07A5F;fontColor=default;" edge="1" parent="gPIm2RjQlK1SHXglzXT1-66" source="gPIm2RjQlK1SHXglzXT1-25" target="gPIm2RjQlK1SHXglzXT1-26">
          <mxGeometry width="50" height="50" relative="1" as="geometry">
            <mxPoint x="-60" y="90" as="sourcePoint" />
            <mxPoint x="-10" y="40" as="targetPoint" />
          </mxGeometry>
        </mxCell>
        <mxCell id="gPIm2RjQlK1SHXglzXT1-62" value="" style="endArrow=none;html=1;rounded=0;entryX=0;entryY=1;entryDx=0;entryDy=0;exitX=0.75;exitY=0;exitDx=0;exitDy=0;labelBackgroundColor=none;strokeColor=#E07A5F;fontColor=default;" edge="1" parent="gPIm2RjQlK1SHXglzXT1-66" source="gPIm2RjQlK1SHXglzXT1-25" target="gPIm2RjQlK1SHXglzXT1-27">
          <mxGeometry width="50" height="50" relative="1" as="geometry">
            <mxPoint x="70" y="90" as="sourcePoint" />
            <mxPoint x="80" y="60" as="targetPoint" />
          </mxGeometry>
        </mxCell>
        <mxCell id="gPIm2RjQlK1SHXglzXT1-63" value="" style="endArrow=none;html=1;rounded=0;entryX=0;entryY=0.5;entryDx=0;entryDy=0;exitX=1;exitY=0.25;exitDx=0;exitDy=0;labelBackgroundColor=none;strokeColor=#E07A5F;fontColor=default;" edge="1" parent="gPIm2RjQlK1SHXglzXT1-66" source="gPIm2RjQlK1SHXglzXT1-25" target="gPIm2RjQlK1SHXglzXT1-28">
          <mxGeometry width="50" height="50" relative="1" as="geometry">
            <mxPoint x="100" y="90" as="sourcePoint" />
            <mxPoint x="152" y="53" as="targetPoint" />
          </mxGeometry>
        </mxCell>
        <mxCell id="gPIm2RjQlK1SHXglzXT1-64" value="" style="endArrow=none;html=1;rounded=0;entryX=0;entryY=0;entryDx=0;entryDy=0;exitX=1;exitY=0.75;exitDx=0;exitDy=0;labelBackgroundColor=none;strokeColor=#E07A5F;fontColor=default;" edge="1" parent="gPIm2RjQlK1SHXglzXT1-66" source="gPIm2RjQlK1SHXglzXT1-25" target="gPIm2RjQlK1SHXglzXT1-29">
          <mxGeometry width="50" height="50" relative="1" as="geometry">
            <mxPoint x="130" y="105" as="sourcePoint" />
            <mxPoint x="160" y="105" as="targetPoint" />
          </mxGeometry>
        </mxCell>
        <mxCell id="gPIm2RjQlK1SHXglzXT1-65" value="" style="endArrow=none;html=1;rounded=0;entryX=0.5;entryY=0;entryDx=0;entryDy=0;exitX=0.75;exitY=1;exitDx=0;exitDy=0;labelBackgroundColor=none;strokeColor=#E07A5F;fontColor=default;" edge="1" parent="gPIm2RjQlK1SHXglzXT1-66" source="gPIm2RjQlK1SHXglzXT1-25" target="gPIm2RjQlK1SHXglzXT1-30">
          <mxGeometry width="50" height="50" relative="1" as="geometry">
            <mxPoint x="130" y="135" as="sourcePoint" />
            <mxPoint x="172" y="157" as="targetPoint" />
          </mxGeometry>
        </mxCell>
        <mxCell id="gPIm2RjQlK1SHXglzXT1-67" value="Has" style="rhombus;whiteSpace=wrap;html=1;labelBackgroundColor=none;fillColor=#F2CC8F;strokeColor=#E07A5F;fontColor=#393C56;" vertex="1" parent="1">
          <mxGeometry x="220" y="320" width="80" height="80" as="geometry" />
        </mxCell>
        <mxCell id="gPIm2RjQlK1SHXglzXT1-68" value="" style="endArrow=none;html=1;rounded=0;entryX=0.5;entryY=1;entryDx=0;entryDy=0;exitX=0.5;exitY=0;exitDx=0;exitDy=0;curved=1;labelBackgroundColor=none;strokeColor=#E07A5F;fontColor=default;" edge="1" parent="1" source="gPIm2RjQlK1SHXglzXT1-67" target="gPIm2RjQlK1SHXglzXT1-1">
          <mxGeometry width="50" height="50" relative="1" as="geometry">
            <mxPoint x="550" y="500" as="sourcePoint" />
            <mxPoint x="600" y="450" as="targetPoint" />
            <Array as="points">
              <mxPoint x="250" y="280" />
            </Array>
          </mxGeometry>
        </mxCell>
        <mxCell id="gPIm2RjQlK1SHXglzXT1-90" value="1" style="edgeLabel;html=1;align=center;verticalAlign=middle;resizable=0;points=[];labelBackgroundColor=none;fontColor=#393C56;" vertex="1" connectable="0" parent="gPIm2RjQlK1SHXglzXT1-68">
          <mxGeometry x="-0.011" y="8" relative="1" as="geometry">
            <mxPoint x="-9" y="-23" as="offset" />
          </mxGeometry>
        </mxCell>
        <mxCell id="gPIm2RjQlK1SHXglzXT1-69" value="" style="endArrow=none;html=1;rounded=0;entryX=0.5;entryY=0;entryDx=0;entryDy=0;exitX=0.5;exitY=1;exitDx=0;exitDy=0;curved=1;labelBackgroundColor=none;strokeColor=#E07A5F;fontColor=default;" edge="1" parent="1" source="gPIm2RjQlK1SHXglzXT1-67" target="gPIm2RjQlK1SHXglzXT1-6">
          <mxGeometry width="50" height="50" relative="1" as="geometry">
            <mxPoint x="210" y="330" as="sourcePoint" />
            <mxPoint x="210" y="260" as="targetPoint" />
            <Array as="points">
              <mxPoint x="250" y="460" />
            </Array>
          </mxGeometry>
        </mxCell>
        <mxCell id="gPIm2RjQlK1SHXglzXT1-87" value="M" style="edgeLabel;html=1;align=center;verticalAlign=middle;resizable=0;points=[];labelBackgroundColor=none;fontColor=#393C56;" vertex="1" connectable="0" parent="gPIm2RjQlK1SHXglzXT1-69">
          <mxGeometry x="0.6026" relative="1" as="geometry">
            <mxPoint y="45" as="offset" />
          </mxGeometry>
        </mxCell>
        <mxCell id="gPIm2RjQlK1SHXglzXT1-70" value="Managed by" style="rhombus;whiteSpace=wrap;html=1;labelBackgroundColor=none;fillColor=#F2CC8F;strokeColor=#E07A5F;fontColor=#393C56;" vertex="1" parent="1">
          <mxGeometry x="100" y="320" width="90" height="90" as="geometry" />
        </mxCell>
        <mxCell id="gPIm2RjQlK1SHXglzXT1-71" value="" style="endArrow=none;html=1;rounded=0;entryX=0.5;entryY=1;entryDx=0;entryDy=0;exitX=0.5;exitY=0;exitDx=0;exitDy=0;curved=1;shape=link;labelBackgroundColor=none;strokeColor=#E07A5F;fontColor=default;" edge="1" parent="1" source="gPIm2RjQlK1SHXglzXT1-70" target="gPIm2RjQlK1SHXglzXT1-1">
          <mxGeometry width="50" height="50" relative="1" as="geometry">
            <mxPoint x="70" y="340" as="sourcePoint" />
            <mxPoint x="120" y="290" as="targetPoint" />
            <Array as="points">
              <mxPoint x="150" y="280" />
            </Array>
          </mxGeometry>
        </mxCell>
        <mxCell id="gPIm2RjQlK1SHXglzXT1-72" value="" style="endArrow=none;html=1;rounded=0;entryX=0.5;entryY=0;entryDx=0;entryDy=0;exitX=0.5;exitY=1;exitDx=0;exitDy=0;curved=1;labelBackgroundColor=none;strokeColor=#E07A5F;fontColor=default;" edge="1" parent="1" source="gPIm2RjQlK1SHXglzXT1-70" target="gPIm2RjQlK1SHXglzXT1-6">
          <mxGeometry width="50" height="50" relative="1" as="geometry">
            <mxPoint x="155" y="330" as="sourcePoint" />
            <mxPoint x="210" y="260" as="targetPoint" />
            <Array as="points">
              <mxPoint x="160" y="470" />
            </Array>
          </mxGeometry>
        </mxCell>
        <mxCell id="gPIm2RjQlK1SHXglzXT1-85" value="1" style="edgeLabel;html=1;align=center;verticalAlign=middle;resizable=0;points=[];labelBackgroundColor=none;fontColor=#393C56;" vertex="1" connectable="0" parent="gPIm2RjQlK1SHXglzXT1-72">
          <mxGeometry x="0.6464" relative="1" as="geometry">
            <mxPoint x="-3" y="35" as="offset" />
          </mxGeometry>
        </mxCell>
        <mxCell id="gPIm2RjQlK1SHXglzXT1-73" value="Provide" style="rhombus;whiteSpace=wrap;html=1;labelBackgroundColor=none;fillColor=#F2CC8F;strokeColor=#E07A5F;fontColor=#393C56;" vertex="1" parent="1">
          <mxGeometry x="390" y="240" width="80" height="80" as="geometry" />
        </mxCell>
        <mxCell id="gPIm2RjQlK1SHXglzXT1-74" value="" style="endArrow=none;html=1;rounded=0;entryX=0;entryY=0.5;entryDx=0;entryDy=0;exitX=1;exitY=0.5;exitDx=0;exitDy=0;curved=1;shape=link;labelBackgroundColor=none;strokeColor=#E07A5F;fontColor=default;" edge="1" parent="1" source="gPIm2RjQlK1SHXglzXT1-1" target="gPIm2RjQlK1SHXglzXT1-73">
          <mxGeometry width="50" height="50" relative="1" as="geometry">
            <mxPoint x="330" y="250" as="sourcePoint" />
            <mxPoint x="380" y="200" as="targetPoint" />
            <Array as="points">
              <mxPoint x="320" y="210" />
            </Array>
          </mxGeometry>
        </mxCell>
        <mxCell id="gPIm2RjQlK1SHXglzXT1-75" value="" style="endArrow=none;html=1;rounded=0;entryX=1;entryY=0.5;entryDx=0;entryDy=0;exitX=0;exitY=0.583;exitDx=0;exitDy=0;exitPerimeter=0;curved=1;shape=link;labelBackgroundColor=none;strokeColor=#E07A5F;fontColor=default;" edge="1" parent="1" source="gPIm2RjQlK1SHXglzXT1-20" target="gPIm2RjQlK1SHXglzXT1-73">
          <mxGeometry width="50" height="50" relative="1" as="geometry">
            <mxPoint x="270" y="230" as="sourcePoint" />
            <mxPoint x="400" y="225" as="targetPoint" />
            <Array as="points">
              <mxPoint x="530" y="330" />
            </Array>
          </mxGeometry>
        </mxCell>
        <mxCell id="gPIm2RjQlK1SHXglzXT1-91" value="M" style="edgeLabel;html=1;align=center;verticalAlign=middle;resizable=0;points=[];labelBackgroundColor=none;fontColor=#393C56;" vertex="1" connectable="0" parent="gPIm2RjQlK1SHXglzXT1-75">
          <mxGeometry x="-0.6206" y="-1" relative="1" as="geometry">
            <mxPoint x="9" y="1" as="offset" />
          </mxGeometry>
        </mxCell>
        <mxCell id="gPIm2RjQlK1SHXglzXT1-76" value="Order" style="rhombus;whiteSpace=wrap;html=1;labelBackgroundColor=none;fillColor=#F2CC8F;strokeColor=#E07A5F;fontColor=#393C56;" vertex="1" parent="1">
          <mxGeometry x="710" y="150" width="80" height="80" as="geometry" />
        </mxCell>
        <mxCell id="gPIm2RjQlK1SHXglzXT1-78" value="" style="endArrow=none;html=1;rounded=0;entryX=0.5;entryY=1;entryDx=0;entryDy=0;exitX=0.5;exitY=0;exitDx=0;exitDy=0;labelBackgroundColor=none;strokeColor=#E07A5F;fontColor=default;" edge="1" parent="1" source="gPIm2RjQlK1SHXglzXT1-76" target="gPIm2RjQlK1SHXglzXT1-16">
          <mxGeometry width="50" height="50" relative="1" as="geometry">
            <mxPoint x="640" y="580" as="sourcePoint" />
            <mxPoint x="690" y="530" as="targetPoint" />
          </mxGeometry>
        </mxCell>
        <mxCell id="gPIm2RjQlK1SHXglzXT1-79" value="" style="endArrow=none;html=1;rounded=0;entryX=0;entryY=0.5;entryDx=0;entryDy=0;exitX=1;exitY=1;exitDx=0;exitDy=0;curved=1;shape=link;labelBackgroundColor=none;strokeColor=#E07A5F;fontColor=default;" edge="1" parent="1" source="gPIm2RjQlK1SHXglzXT1-76" target="gPIm2RjQlK1SHXglzXT1-25">
          <mxGeometry width="50" height="50" relative="1" as="geometry">
            <mxPoint x="900" y="520" as="sourcePoint" />
            <mxPoint x="950" y="470" as="targetPoint" />
            <Array as="points">
              <mxPoint x="800" y="240" />
            </Array>
          </mxGeometry>
        </mxCell>
        <mxCell id="gPIm2RjQlK1SHXglzXT1-95" value="M" style="edgeLabel;html=1;align=center;verticalAlign=middle;resizable=0;points=[];labelBackgroundColor=none;fontColor=#393C56;" vertex="1" connectable="0" parent="gPIm2RjQlK1SHXglzXT1-79">
          <mxGeometry x="0.4552" y="5" relative="1" as="geometry">
            <mxPoint x="9" y="-5" as="offset" />
          </mxGeometry>
        </mxCell>
        <mxCell id="gPIm2RjQlK1SHXglzXT1-80" value="Has" style="rhombus;whiteSpace=wrap;html=1;labelBackgroundColor=none;fillColor=#F2CC8F;strokeColor=#E07A5F;fontColor=#393C56;" vertex="1" parent="1">
          <mxGeometry x="940" y="450" width="80" height="80" as="geometry" />
        </mxCell>
        <mxCell id="gPIm2RjQlK1SHXglzXT1-81" value="" style="endArrow=none;html=1;rounded=0;entryX=0.5;entryY=1;entryDx=0;entryDy=0;exitX=0;exitY=0;exitDx=0;exitDy=0;curved=1;shape=link;labelBackgroundColor=none;strokeColor=#E07A5F;fontColor=default;" edge="1" parent="1" source="gPIm2RjQlK1SHXglzXT1-80" target="gPIm2RjQlK1SHXglzXT1-25">
          <mxGeometry width="50" height="50" relative="1" as="geometry">
            <mxPoint x="890" y="480" as="sourcePoint" />
            <mxPoint x="940" y="430" as="targetPoint" />
            <Array as="points">
              <mxPoint x="850" y="400" />
            </Array>
          </mxGeometry>
        </mxCell>
        <mxCell id="gPIm2RjQlK1SHXglzXT1-82" value="" style="endArrow=none;html=1;rounded=0;entryX=0.5;entryY=1;entryDx=0;entryDy=0;exitX=0.5;exitY=1;exitDx=0;exitDy=0;curved=1;shape=link;labelBackgroundColor=none;strokeColor=#E07A5F;fontColor=default;" edge="1" parent="1" source="gPIm2RjQlK1SHXglzXT1-20" target="gPIm2RjQlK1SHXglzXT1-80">
          <mxGeometry width="50" height="50" relative="1" as="geometry">
            <mxPoint x="910" y="650" as="sourcePoint" />
            <mxPoint x="960" y="600" as="targetPoint" />
            <Array as="points">
              <mxPoint x="820" y="750" />
            </Array>
          </mxGeometry>
        </mxCell>
        <mxCell id="gPIm2RjQlK1SHXglzXT1-93" value="M" style="edgeLabel;html=1;align=center;verticalAlign=middle;resizable=0;points=[];labelBackgroundColor=none;fontColor=#393C56;" vertex="1" connectable="0" parent="gPIm2RjQlK1SHXglzXT1-82">
          <mxGeometry x="-0.6194" y="6" relative="1" as="geometry">
            <mxPoint x="-38" y="-68" as="offset" />
          </mxGeometry>
        </mxCell>
        <mxCell id="gPIm2RjQlK1SHXglzXT1-83" value="" style="endArrow=none;html=1;rounded=0;entryX=1;entryY=0.5;entryDx=0;entryDy=0;exitX=0.5;exitY=0;exitDx=0;exitDy=0;curved=1;shape=link;labelBackgroundColor=none;strokeColor=#E07A5F;fontColor=default;" edge="1" parent="1" source="gPIm2RjQlK1SHXglzXT1-31" target="gPIm2RjQlK1SHXglzXT1-67">
          <mxGeometry width="50" height="50" relative="1" as="geometry">
            <mxPoint x="360" y="410" as="sourcePoint" />
            <mxPoint x="410" y="360" as="targetPoint" />
            <Array as="points">
              <mxPoint x="370" y="380" />
            </Array>
          </mxGeometry>
        </mxCell>
        <mxCell id="gPIm2RjQlK1SHXglzXT1-86" value="1" style="edgeLabel;html=1;align=center;verticalAlign=middle;resizable=0;points=[];labelBackgroundColor=none;fontColor=#393C56;" vertex="1" connectable="0" parent="1">
          <mxGeometry x="207.00406841205393" y="675.0038591632833" as="geometry">
            <mxPoint x="-39" y="-417" as="offset" />
          </mxGeometry>
        </mxCell>
        <mxCell id="gPIm2RjQlK1SHXglzXT1-88" value="1" style="edgeLabel;html=1;align=center;verticalAlign=middle;resizable=0;points=[];labelBackgroundColor=none;fontColor=#393C56;" vertex="1" connectable="0" parent="1">
          <mxGeometry x="223.0041886244409" y="630.00157005246" as="geometry">
            <mxPoint x="-19" y="-363" as="offset" />
          </mxGeometry>
        </mxCell>
        <mxCell id="gPIm2RjQlK1SHXglzXT1-89" value="M" style="edgeLabel;html=1;align=center;verticalAlign=middle;resizable=0;points=[];labelBackgroundColor=none;fontColor=#393C56;" vertex="1" connectable="0" parent="1">
          <mxGeometry x="450.00418862444087" y="800.00157005246" as="geometry">
            <mxPoint x="-19" y="-363" as="offset" />
          </mxGeometry>
        </mxCell>
        <mxCell id="gPIm2RjQlK1SHXglzXT1-92" value="1" style="edgeLabel;html=1;align=center;verticalAlign=middle;resizable=0;points=[];labelBackgroundColor=none;fontColor=#393C56;" vertex="1" connectable="0" parent="1">
          <mxGeometry x="593.4469721900894" y="456.662754375056" as="geometry">
            <mxPoint x="-321" y="-248" as="offset" />
          </mxGeometry>
        </mxCell>
        <mxCell id="gPIm2RjQlK1SHXglzXT1-94" value="1" style="edgeLabel;html=1;align=center;verticalAlign=middle;resizable=0;points=[];labelBackgroundColor=none;fontColor=#393C56;" vertex="1" connectable="0" parent="1">
          <mxGeometry x="689.5506801543322" y="540.1420660870308" as="geometry">
            <mxPoint x="188" y="-239" as="offset" />
          </mxGeometry>
        </mxCell>
        <mxCell id="gPIm2RjQlK1SHXglzXT1-96" value="1" style="edgeLabel;html=1;align=center;verticalAlign=middle;resizable=0;points=[];labelBackgroundColor=none;fontColor=#393C56;" vertex="1" connectable="0" parent="1">
          <mxGeometry x="840.0654186146044" y="249.9425393635529" as="geometry">
            <mxPoint x="-102" y="-140" as="offset" />
          </mxGeometry>
        </mxCell>
        <mxCell id="gPIm2RjQlK1SHXglzXT1-97" value="Branch" style="shape=table;startSize=30;container=1;collapsible=1;childLayout=tableLayout;fixedRows=1;rowLines=0;fontStyle=1;align=center;resizeLast=1;html=1;labelBackgroundColor=none;fillColor=#F2CC8F;strokeColor=#E07A5F;fontColor=#393C56;" vertex="1" parent="1">
          <mxGeometry x="1210" y="285" width="180" height="150" as="geometry" />
        </mxCell>
        <mxCell id="gPIm2RjQlK1SHXglzXT1-98" value="" style="shape=tableRow;horizontal=0;startSize=0;swimlaneHead=0;swimlaneBody=0;fillColor=none;collapsible=0;dropTarget=0;points=[[0,0.5],[1,0.5]];portConstraint=eastwest;top=0;left=0;right=0;bottom=1;labelBackgroundColor=none;strokeColor=#E07A5F;fontColor=#393C56;" vertex="1" parent="gPIm2RjQlK1SHXglzXT1-97">
          <mxGeometry y="30" width="180" height="30" as="geometry" />
        </mxCell>
        <mxCell id="gPIm2RjQlK1SHXglzXT1-99" value="PK" style="shape=partialRectangle;connectable=0;fillColor=none;top=0;left=0;bottom=0;right=0;fontStyle=1;overflow=hidden;whiteSpace=wrap;html=1;labelBackgroundColor=none;strokeColor=#E07A5F;fontColor=#393C56;" vertex="1" parent="gPIm2RjQlK1SHXglzXT1-98">
          <mxGeometry width="30" height="30" as="geometry">
            <mxRectangle width="30" height="30" as="alternateBounds" />
          </mxGeometry>
        </mxCell>
        <mxCell id="gPIm2RjQlK1SHXglzXT1-100" value="ID" style="shape=partialRectangle;connectable=0;fillColor=none;top=0;left=0;bottom=0;right=0;align=left;spacingLeft=6;fontStyle=5;overflow=hidden;whiteSpace=wrap;html=1;labelBackgroundColor=none;strokeColor=#E07A5F;fontColor=#393C56;" vertex="1" parent="gPIm2RjQlK1SHXglzXT1-98">
          <mxGeometry x="30" width="150" height="30" as="geometry">
            <mxRectangle width="150" height="30" as="alternateBounds" />
          </mxGeometry>
        </mxCell>
        <mxCell id="gPIm2RjQlK1SHXglzXT1-101" value="" style="shape=tableRow;horizontal=0;startSize=0;swimlaneHead=0;swimlaneBody=0;fillColor=none;collapsible=0;dropTarget=0;points=[[0,0.5],[1,0.5]];portConstraint=eastwest;top=0;left=0;right=0;bottom=0;labelBackgroundColor=none;strokeColor=#E07A5F;fontColor=#393C56;" vertex="1" parent="gPIm2RjQlK1SHXglzXT1-97">
          <mxGeometry y="60" width="180" height="30" as="geometry" />
        </mxCell>
        <mxCell id="gPIm2RjQlK1SHXglzXT1-102" value="" style="shape=partialRectangle;connectable=0;fillColor=none;top=0;left=0;bottom=0;right=0;editable=1;overflow=hidden;whiteSpace=wrap;html=1;labelBackgroundColor=none;strokeColor=#E07A5F;fontColor=#393C56;" vertex="1" parent="gPIm2RjQlK1SHXglzXT1-101">
          <mxGeometry width="30" height="30" as="geometry">
            <mxRectangle width="30" height="30" as="alternateBounds" />
          </mxGeometry>
        </mxCell>
        <mxCell id="gPIm2RjQlK1SHXglzXT1-103" value="Address" style="shape=partialRectangle;connectable=0;fillColor=none;top=0;left=0;bottom=0;right=0;align=left;spacingLeft=6;overflow=hidden;whiteSpace=wrap;html=1;labelBackgroundColor=none;strokeColor=#E07A5F;fontColor=#393C56;" vertex="1" parent="gPIm2RjQlK1SHXglzXT1-101">
          <mxGeometry x="30" width="150" height="30" as="geometry">
            <mxRectangle width="150" height="30" as="alternateBounds" />
          </mxGeometry>
        </mxCell>
        <mxCell id="gPIm2RjQlK1SHXglzXT1-104" value="" style="shape=tableRow;horizontal=0;startSize=0;swimlaneHead=0;swimlaneBody=0;fillColor=none;collapsible=0;dropTarget=0;points=[[0,0.5],[1,0.5]];portConstraint=eastwest;top=0;left=0;right=0;bottom=0;labelBackgroundColor=none;strokeColor=#E07A5F;fontColor=#393C56;" vertex="1" parent="gPIm2RjQlK1SHXglzXT1-97">
          <mxGeometry y="90" width="180" height="30" as="geometry" />
        </mxCell>
        <mxCell id="gPIm2RjQlK1SHXglzXT1-105" value="" style="shape=partialRectangle;connectable=0;fillColor=none;top=0;left=0;bottom=0;right=0;editable=1;overflow=hidden;whiteSpace=wrap;html=1;labelBackgroundColor=none;strokeColor=#E07A5F;fontColor=#393C56;" vertex="1" parent="gPIm2RjQlK1SHXglzXT1-104">
          <mxGeometry width="30" height="30" as="geometry">
            <mxRectangle width="30" height="30" as="alternateBounds" />
          </mxGeometry>
        </mxCell>
        <mxCell id="gPIm2RjQlK1SHXglzXT1-106" value="Contact no." style="shape=partialRectangle;connectable=0;fillColor=none;top=0;left=0;bottom=0;right=0;align=left;spacingLeft=6;overflow=hidden;whiteSpace=wrap;html=1;labelBackgroundColor=none;strokeColor=#E07A5F;fontColor=#393C56;" vertex="1" parent="gPIm2RjQlK1SHXglzXT1-104">
          <mxGeometry x="30" width="150" height="30" as="geometry">
            <mxRectangle width="150" height="30" as="alternateBounds" />
          </mxGeometry>
        </mxCell>
        <mxCell id="gPIm2RjQlK1SHXglzXT1-107" value="" style="shape=tableRow;horizontal=0;startSize=0;swimlaneHead=0;swimlaneBody=0;fillColor=none;collapsible=0;dropTarget=0;points=[[0,0.5],[1,0.5]];portConstraint=eastwest;top=0;left=0;right=0;bottom=0;labelBackgroundColor=none;strokeColor=#E07A5F;fontColor=#393C56;" vertex="1" parent="gPIm2RjQlK1SHXglzXT1-97">
          <mxGeometry y="120" width="180" height="30" as="geometry" />
        </mxCell>
        <mxCell id="gPIm2RjQlK1SHXglzXT1-108" value="FK" style="shape=partialRectangle;connectable=0;fillColor=none;top=0;left=0;bottom=0;right=0;editable=1;overflow=hidden;whiteSpace=wrap;html=1;labelBackgroundColor=none;strokeColor=#E07A5F;fontColor=#393C56;" vertex="1" parent="gPIm2RjQlK1SHXglzXT1-107">
          <mxGeometry width="30" height="30" as="geometry">
            <mxRectangle width="30" height="30" as="alternateBounds" />
          </mxGeometry>
        </mxCell>
        <mxCell id="gPIm2RjQlK1SHXglzXT1-109" value="Mgr_ID" style="shape=partialRectangle;connectable=0;fillColor=none;top=0;left=0;bottom=0;right=0;align=left;spacingLeft=6;overflow=hidden;whiteSpace=wrap;html=1;labelBackgroundColor=none;strokeColor=#E07A5F;fontColor=#393C56;" vertex="1" parent="gPIm2RjQlK1SHXglzXT1-107">
          <mxGeometry x="30" width="150" height="30" as="geometry">
            <mxRectangle width="150" height="30" as="alternateBounds" />
          </mxGeometry>
        </mxCell>
        <mxCell id="gPIm2RjQlK1SHXglzXT1-110" value="Staff" style="shape=table;startSize=30;container=1;collapsible=1;childLayout=tableLayout;fixedRows=1;rowLines=0;fontStyle=1;align=center;resizeLast=1;html=1;labelBackgroundColor=none;fillColor=#F2CC8F;strokeColor=#E07A5F;fontColor=#393C56;" vertex="1" parent="1">
          <mxGeometry x="1220" y="580" width="180" height="300" as="geometry" />
        </mxCell>
        <mxCell id="gPIm2RjQlK1SHXglzXT1-111" value="" style="shape=tableRow;horizontal=0;startSize=0;swimlaneHead=0;swimlaneBody=0;fillColor=none;collapsible=0;dropTarget=0;points=[[0,0.5],[1,0.5]];portConstraint=eastwest;top=0;left=0;right=0;bottom=1;labelBackgroundColor=none;strokeColor=#E07A5F;fontColor=#393C56;" vertex="1" parent="gPIm2RjQlK1SHXglzXT1-110">
          <mxGeometry y="30" width="180" height="30" as="geometry" />
        </mxCell>
        <mxCell id="gPIm2RjQlK1SHXglzXT1-112" value="PK" style="shape=partialRectangle;connectable=0;fillColor=none;top=0;left=0;bottom=0;right=0;fontStyle=1;overflow=hidden;whiteSpace=wrap;html=1;labelBackgroundColor=none;strokeColor=#E07A5F;fontColor=#393C56;" vertex="1" parent="gPIm2RjQlK1SHXglzXT1-111">
          <mxGeometry width="30" height="30" as="geometry">
            <mxRectangle width="30" height="30" as="alternateBounds" />
          </mxGeometry>
        </mxCell>
        <mxCell id="gPIm2RjQlK1SHXglzXT1-113" value="ID" style="shape=partialRectangle;connectable=0;fillColor=none;top=0;left=0;bottom=0;right=0;align=left;spacingLeft=6;fontStyle=5;overflow=hidden;whiteSpace=wrap;html=1;labelBackgroundColor=none;strokeColor=#E07A5F;fontColor=#393C56;" vertex="1" parent="gPIm2RjQlK1SHXglzXT1-111">
          <mxGeometry x="30" width="150" height="30" as="geometry">
            <mxRectangle width="150" height="30" as="alternateBounds" />
          </mxGeometry>
        </mxCell>
        <mxCell id="gPIm2RjQlK1SHXglzXT1-114" value="" style="shape=tableRow;horizontal=0;startSize=0;swimlaneHead=0;swimlaneBody=0;fillColor=none;collapsible=0;dropTarget=0;points=[[0,0.5],[1,0.5]];portConstraint=eastwest;top=0;left=0;right=0;bottom=0;labelBackgroundColor=none;strokeColor=#E07A5F;fontColor=#393C56;" vertex="1" parent="gPIm2RjQlK1SHXglzXT1-110">
          <mxGeometry y="60" width="180" height="30" as="geometry" />
        </mxCell>
        <mxCell id="gPIm2RjQlK1SHXglzXT1-115" value="" style="shape=partialRectangle;connectable=0;fillColor=none;top=0;left=0;bottom=0;right=0;editable=1;overflow=hidden;whiteSpace=wrap;html=1;labelBackgroundColor=none;strokeColor=#E07A5F;fontColor=#393C56;" vertex="1" parent="gPIm2RjQlK1SHXglzXT1-114">
          <mxGeometry width="30" height="30" as="geometry">
            <mxRectangle width="30" height="30" as="alternateBounds" />
          </mxGeometry>
        </mxCell>
        <mxCell id="gPIm2RjQlK1SHXglzXT1-116" value="Name" style="shape=partialRectangle;connectable=0;fillColor=none;top=0;left=0;bottom=0;right=0;align=left;spacingLeft=6;overflow=hidden;whiteSpace=wrap;html=1;labelBackgroundColor=none;strokeColor=#E07A5F;fontColor=#393C56;" vertex="1" parent="gPIm2RjQlK1SHXglzXT1-114">
          <mxGeometry x="30" width="150" height="30" as="geometry">
            <mxRectangle width="150" height="30" as="alternateBounds" />
          </mxGeometry>
        </mxCell>
        <mxCell id="gPIm2RjQlK1SHXglzXT1-117" value="" style="shape=tableRow;horizontal=0;startSize=0;swimlaneHead=0;swimlaneBody=0;fillColor=none;collapsible=0;dropTarget=0;points=[[0,0.5],[1,0.5]];portConstraint=eastwest;top=0;left=0;right=0;bottom=0;labelBackgroundColor=none;strokeColor=#E07A5F;fontColor=#393C56;" vertex="1" parent="gPIm2RjQlK1SHXglzXT1-110">
          <mxGeometry y="90" width="180" height="30" as="geometry" />
        </mxCell>
        <mxCell id="gPIm2RjQlK1SHXglzXT1-118" value="" style="shape=partialRectangle;connectable=0;fillColor=none;top=0;left=0;bottom=0;right=0;editable=1;overflow=hidden;whiteSpace=wrap;html=1;labelBackgroundColor=none;strokeColor=#E07A5F;fontColor=#393C56;" vertex="1" parent="gPIm2RjQlK1SHXglzXT1-117">
          <mxGeometry width="30" height="30" as="geometry">
            <mxRectangle width="30" height="30" as="alternateBounds" />
          </mxGeometry>
        </mxCell>
        <mxCell id="gPIm2RjQlK1SHXglzXT1-119" value="age" style="shape=partialRectangle;connectable=0;fillColor=none;top=0;left=0;bottom=0;right=0;align=left;spacingLeft=6;overflow=hidden;whiteSpace=wrap;html=1;labelBackgroundColor=none;strokeColor=#E07A5F;fontColor=#393C56;" vertex="1" parent="gPIm2RjQlK1SHXglzXT1-117">
          <mxGeometry x="30" width="150" height="30" as="geometry">
            <mxRectangle width="150" height="30" as="alternateBounds" />
          </mxGeometry>
        </mxCell>
        <mxCell id="gPIm2RjQlK1SHXglzXT1-120" value="" style="shape=tableRow;horizontal=0;startSize=0;swimlaneHead=0;swimlaneBody=0;fillColor=none;collapsible=0;dropTarget=0;points=[[0,0.5],[1,0.5]];portConstraint=eastwest;top=0;left=0;right=0;bottom=0;labelBackgroundColor=none;strokeColor=#E07A5F;fontColor=#393C56;" vertex="1" parent="gPIm2RjQlK1SHXglzXT1-110">
          <mxGeometry y="120" width="180" height="30" as="geometry" />
        </mxCell>
        <mxCell id="gPIm2RjQlK1SHXglzXT1-121" value="" style="shape=partialRectangle;connectable=0;fillColor=none;top=0;left=0;bottom=0;right=0;editable=1;overflow=hidden;whiteSpace=wrap;html=1;labelBackgroundColor=none;strokeColor=#E07A5F;fontColor=#393C56;" vertex="1" parent="gPIm2RjQlK1SHXglzXT1-120">
          <mxGeometry width="30" height="30" as="geometry">
            <mxRectangle width="30" height="30" as="alternateBounds" />
          </mxGeometry>
        </mxCell>
        <mxCell id="gPIm2RjQlK1SHXglzXT1-122" value="Joining date" style="shape=partialRectangle;connectable=0;fillColor=none;top=0;left=0;bottom=0;right=0;align=left;spacingLeft=6;overflow=hidden;whiteSpace=wrap;html=1;labelBackgroundColor=none;strokeColor=#E07A5F;fontColor=#393C56;" vertex="1" parent="gPIm2RjQlK1SHXglzXT1-120">
          <mxGeometry x="30" width="150" height="30" as="geometry">
            <mxRectangle width="150" height="30" as="alternateBounds" />
          </mxGeometry>
        </mxCell>
        <mxCell id="gPIm2RjQlK1SHXglzXT1-132" style="shape=tableRow;horizontal=0;startSize=0;swimlaneHead=0;swimlaneBody=0;fillColor=none;collapsible=0;dropTarget=0;points=[[0,0.5],[1,0.5]];portConstraint=eastwest;top=0;left=0;right=0;bottom=0;labelBackgroundColor=none;strokeColor=#E07A5F;fontColor=#393C56;" vertex="1" parent="gPIm2RjQlK1SHXglzXT1-110">
          <mxGeometry y="150" width="180" height="30" as="geometry" />
        </mxCell>
        <mxCell id="gPIm2RjQlK1SHXglzXT1-133" style="shape=partialRectangle;connectable=0;fillColor=none;top=0;left=0;bottom=0;right=0;editable=1;overflow=hidden;whiteSpace=wrap;html=1;labelBackgroundColor=none;strokeColor=#E07A5F;fontColor=#393C56;" vertex="1" parent="gPIm2RjQlK1SHXglzXT1-132">
          <mxGeometry width="30" height="30" as="geometry">
            <mxRectangle width="30" height="30" as="alternateBounds" />
          </mxGeometry>
        </mxCell>
        <mxCell id="gPIm2RjQlK1SHXglzXT1-134" value="Role" style="shape=partialRectangle;connectable=0;fillColor=none;top=0;left=0;bottom=0;right=0;align=left;spacingLeft=6;overflow=hidden;whiteSpace=wrap;html=1;labelBackgroundColor=none;strokeColor=#E07A5F;fontColor=#393C56;" vertex="1" parent="gPIm2RjQlK1SHXglzXT1-132">
          <mxGeometry x="30" width="150" height="30" as="geometry">
            <mxRectangle width="150" height="30" as="alternateBounds" />
          </mxGeometry>
        </mxCell>
        <mxCell id="gPIm2RjQlK1SHXglzXT1-129" style="shape=tableRow;horizontal=0;startSize=0;swimlaneHead=0;swimlaneBody=0;fillColor=none;collapsible=0;dropTarget=0;points=[[0,0.5],[1,0.5]];portConstraint=eastwest;top=0;left=0;right=0;bottom=0;labelBackgroundColor=none;strokeColor=#E07A5F;fontColor=#393C56;" vertex="1" parent="gPIm2RjQlK1SHXglzXT1-110">
          <mxGeometry y="180" width="180" height="30" as="geometry" />
        </mxCell>
        <mxCell id="gPIm2RjQlK1SHXglzXT1-130" style="shape=partialRectangle;connectable=0;fillColor=none;top=0;left=0;bottom=0;right=0;editable=1;overflow=hidden;whiteSpace=wrap;html=1;labelBackgroundColor=none;strokeColor=#E07A5F;fontColor=#393C56;" vertex="1" parent="gPIm2RjQlK1SHXglzXT1-129">
          <mxGeometry width="30" height="30" as="geometry">
            <mxRectangle width="30" height="30" as="alternateBounds" />
          </mxGeometry>
        </mxCell>
        <mxCell id="gPIm2RjQlK1SHXglzXT1-131" value="Salary" style="shape=partialRectangle;connectable=0;fillColor=none;top=0;left=0;bottom=0;right=0;align=left;spacingLeft=6;overflow=hidden;whiteSpace=wrap;html=1;labelBackgroundColor=none;strokeColor=#E07A5F;fontColor=#393C56;" vertex="1" parent="gPIm2RjQlK1SHXglzXT1-129">
          <mxGeometry x="30" width="150" height="30" as="geometry">
            <mxRectangle width="150" height="30" as="alternateBounds" />
          </mxGeometry>
        </mxCell>
        <mxCell id="gPIm2RjQlK1SHXglzXT1-126" style="shape=tableRow;horizontal=0;startSize=0;swimlaneHead=0;swimlaneBody=0;fillColor=none;collapsible=0;dropTarget=0;points=[[0,0.5],[1,0.5]];portConstraint=eastwest;top=0;left=0;right=0;bottom=0;labelBackgroundColor=none;strokeColor=#E07A5F;fontColor=#393C56;" vertex="1" parent="gPIm2RjQlK1SHXglzXT1-110">
          <mxGeometry y="210" width="180" height="30" as="geometry" />
        </mxCell>
        <mxCell id="gPIm2RjQlK1SHXglzXT1-127" style="shape=partialRectangle;connectable=0;fillColor=none;top=0;left=0;bottom=0;right=0;editable=1;overflow=hidden;whiteSpace=wrap;html=1;labelBackgroundColor=none;strokeColor=#E07A5F;fontColor=#393C56;" vertex="1" parent="gPIm2RjQlK1SHXglzXT1-126">
          <mxGeometry width="30" height="30" as="geometry">
            <mxRectangle width="30" height="30" as="alternateBounds" />
          </mxGeometry>
        </mxCell>
        <mxCell id="gPIm2RjQlK1SHXglzXT1-128" value="City" style="shape=partialRectangle;connectable=0;fillColor=none;top=0;left=0;bottom=0;right=0;align=left;spacingLeft=6;overflow=hidden;whiteSpace=wrap;html=1;labelBackgroundColor=none;strokeColor=#E07A5F;fontColor=#393C56;" vertex="1" parent="gPIm2RjQlK1SHXglzXT1-126">
          <mxGeometry x="30" width="150" height="30" as="geometry">
            <mxRectangle width="150" height="30" as="alternateBounds" />
          </mxGeometry>
        </mxCell>
        <mxCell id="gPIm2RjQlK1SHXglzXT1-123" style="shape=tableRow;horizontal=0;startSize=0;swimlaneHead=0;swimlaneBody=0;fillColor=none;collapsible=0;dropTarget=0;points=[[0,0.5],[1,0.5]];portConstraint=eastwest;top=0;left=0;right=0;bottom=0;labelBackgroundColor=none;strokeColor=#E07A5F;fontColor=#393C56;" vertex="1" parent="gPIm2RjQlK1SHXglzXT1-110">
          <mxGeometry y="240" width="180" height="30" as="geometry" />
        </mxCell>
        <mxCell id="gPIm2RjQlK1SHXglzXT1-124" style="shape=partialRectangle;connectable=0;fillColor=none;top=0;left=0;bottom=0;right=0;editable=1;overflow=hidden;whiteSpace=wrap;html=1;labelBackgroundColor=none;strokeColor=#E07A5F;fontColor=#393C56;" vertex="1" parent="gPIm2RjQlK1SHXglzXT1-123">
          <mxGeometry width="30" height="30" as="geometry">
            <mxRectangle width="30" height="30" as="alternateBounds" />
          </mxGeometry>
        </mxCell>
        <mxCell id="gPIm2RjQlK1SHXglzXT1-125" value="Region" style="shape=partialRectangle;connectable=0;fillColor=none;top=0;left=0;bottom=0;right=0;align=left;spacingLeft=6;overflow=hidden;whiteSpace=wrap;html=1;labelBackgroundColor=none;strokeColor=#E07A5F;fontColor=#393C56;" vertex="1" parent="gPIm2RjQlK1SHXglzXT1-123">
          <mxGeometry x="30" width="150" height="30" as="geometry">
            <mxRectangle width="150" height="30" as="alternateBounds" />
          </mxGeometry>
        </mxCell>
        <mxCell id="gPIm2RjQlK1SHXglzXT1-230" style="shape=tableRow;horizontal=0;startSize=0;swimlaneHead=0;swimlaneBody=0;fillColor=none;collapsible=0;dropTarget=0;points=[[0,0.5],[1,0.5]];portConstraint=eastwest;top=0;left=0;right=0;bottom=0;labelBackgroundColor=none;strokeColor=#E07A5F;fontColor=#393C56;" vertex="1" parent="gPIm2RjQlK1SHXglzXT1-110">
          <mxGeometry y="270" width="180" height="30" as="geometry" />
        </mxCell>
        <mxCell id="gPIm2RjQlK1SHXglzXT1-231" value="FK" style="shape=partialRectangle;connectable=0;fillColor=none;top=0;left=0;bottom=0;right=0;editable=1;overflow=hidden;whiteSpace=wrap;html=1;labelBackgroundColor=none;strokeColor=#E07A5F;fontColor=#393C56;" vertex="1" parent="gPIm2RjQlK1SHXglzXT1-230">
          <mxGeometry width="30" height="30" as="geometry">
            <mxRectangle width="30" height="30" as="alternateBounds" />
          </mxGeometry>
        </mxCell>
        <mxCell id="gPIm2RjQlK1SHXglzXT1-232" value="Branch_ID" style="shape=partialRectangle;connectable=0;fillColor=none;top=0;left=0;bottom=0;right=0;align=left;spacingLeft=6;overflow=hidden;whiteSpace=wrap;html=1;labelBackgroundColor=none;strokeColor=#E07A5F;fontColor=#393C56;" vertex="1" parent="gPIm2RjQlK1SHXglzXT1-230">
          <mxGeometry x="30" width="150" height="30" as="geometry">
            <mxRectangle width="150" height="30" as="alternateBounds" />
          </mxGeometry>
        </mxCell>
        <mxCell id="gPIm2RjQlK1SHXglzXT1-173" value="Item" style="shape=table;startSize=30;container=1;collapsible=1;childLayout=tableLayout;fixedRows=1;rowLines=0;fontStyle=1;align=center;resizeLast=1;html=1;labelBackgroundColor=none;fillColor=#F2CC8F;strokeColor=#E07A5F;fontColor=#393C56;" vertex="1" parent="1">
          <mxGeometry x="1470" y="230" width="180" height="210" as="geometry" />
        </mxCell>
        <mxCell id="gPIm2RjQlK1SHXglzXT1-174" value="" style="shape=tableRow;horizontal=0;startSize=0;swimlaneHead=0;swimlaneBody=0;fillColor=none;collapsible=0;dropTarget=0;points=[[0,0.5],[1,0.5]];portConstraint=eastwest;top=0;left=0;right=0;bottom=1;labelBackgroundColor=none;strokeColor=#E07A5F;fontColor=#393C56;" vertex="1" parent="gPIm2RjQlK1SHXglzXT1-173">
          <mxGeometry y="30" width="180" height="30" as="geometry" />
        </mxCell>
        <mxCell id="gPIm2RjQlK1SHXglzXT1-175" value="PK" style="shape=partialRectangle;connectable=0;fillColor=none;top=0;left=0;bottom=0;right=0;fontStyle=1;overflow=hidden;whiteSpace=wrap;html=1;labelBackgroundColor=none;strokeColor=#E07A5F;fontColor=#393C56;" vertex="1" parent="gPIm2RjQlK1SHXglzXT1-174">
          <mxGeometry width="30" height="30" as="geometry">
            <mxRectangle width="30" height="30" as="alternateBounds" />
          </mxGeometry>
        </mxCell>
        <mxCell id="gPIm2RjQlK1SHXglzXT1-176" value="Code" style="shape=partialRectangle;connectable=0;fillColor=none;top=0;left=0;bottom=0;right=0;align=left;spacingLeft=6;fontStyle=5;overflow=hidden;whiteSpace=wrap;html=1;labelBackgroundColor=none;strokeColor=#E07A5F;fontColor=#393C56;" vertex="1" parent="gPIm2RjQlK1SHXglzXT1-174">
          <mxGeometry x="30" width="150" height="30" as="geometry">
            <mxRectangle width="150" height="30" as="alternateBounds" />
          </mxGeometry>
        </mxCell>
        <mxCell id="gPIm2RjQlK1SHXglzXT1-177" value="" style="shape=tableRow;horizontal=0;startSize=0;swimlaneHead=0;swimlaneBody=0;fillColor=none;collapsible=0;dropTarget=0;points=[[0,0.5],[1,0.5]];portConstraint=eastwest;top=0;left=0;right=0;bottom=0;labelBackgroundColor=none;strokeColor=#E07A5F;fontColor=#393C56;" vertex="1" parent="gPIm2RjQlK1SHXglzXT1-173">
          <mxGeometry y="60" width="180" height="30" as="geometry" />
        </mxCell>
        <mxCell id="gPIm2RjQlK1SHXglzXT1-178" value="" style="shape=partialRectangle;connectable=0;fillColor=none;top=0;left=0;bottom=0;right=0;editable=1;overflow=hidden;whiteSpace=wrap;html=1;labelBackgroundColor=none;strokeColor=#E07A5F;fontColor=#393C56;" vertex="1" parent="gPIm2RjQlK1SHXglzXT1-177">
          <mxGeometry width="30" height="30" as="geometry">
            <mxRectangle width="30" height="30" as="alternateBounds" />
          </mxGeometry>
        </mxCell>
        <mxCell id="gPIm2RjQlK1SHXglzXT1-179" value="Name" style="shape=partialRectangle;connectable=0;fillColor=none;top=0;left=0;bottom=0;right=0;align=left;spacingLeft=6;overflow=hidden;whiteSpace=wrap;html=1;labelBackgroundColor=none;strokeColor=#E07A5F;fontColor=#393C56;" vertex="1" parent="gPIm2RjQlK1SHXglzXT1-177">
          <mxGeometry x="30" width="150" height="30" as="geometry">
            <mxRectangle width="150" height="30" as="alternateBounds" />
          </mxGeometry>
        </mxCell>
        <mxCell id="gPIm2RjQlK1SHXglzXT1-180" value="" style="shape=tableRow;horizontal=0;startSize=0;swimlaneHead=0;swimlaneBody=0;fillColor=none;collapsible=0;dropTarget=0;points=[[0,0.5],[1,0.5]];portConstraint=eastwest;top=0;left=0;right=0;bottom=0;labelBackgroundColor=none;strokeColor=#E07A5F;fontColor=#393C56;" vertex="1" parent="gPIm2RjQlK1SHXglzXT1-173">
          <mxGeometry y="90" width="180" height="30" as="geometry" />
        </mxCell>
        <mxCell id="gPIm2RjQlK1SHXglzXT1-181" value="" style="shape=partialRectangle;connectable=0;fillColor=none;top=0;left=0;bottom=0;right=0;editable=1;overflow=hidden;whiteSpace=wrap;html=1;labelBackgroundColor=none;strokeColor=#E07A5F;fontColor=#393C56;" vertex="1" parent="gPIm2RjQlK1SHXglzXT1-180">
          <mxGeometry width="30" height="30" as="geometry">
            <mxRectangle width="30" height="30" as="alternateBounds" />
          </mxGeometry>
        </mxCell>
        <mxCell id="gPIm2RjQlK1SHXglzXT1-182" value="Price" style="shape=partialRectangle;connectable=0;fillColor=none;top=0;left=0;bottom=0;right=0;align=left;spacingLeft=6;overflow=hidden;whiteSpace=wrap;html=1;labelBackgroundColor=none;strokeColor=#E07A5F;fontColor=#393C56;" vertex="1" parent="gPIm2RjQlK1SHXglzXT1-180">
          <mxGeometry x="30" width="150" height="30" as="geometry">
            <mxRectangle width="150" height="30" as="alternateBounds" />
          </mxGeometry>
        </mxCell>
        <mxCell id="gPIm2RjQlK1SHXglzXT1-183" value="" style="shape=tableRow;horizontal=0;startSize=0;swimlaneHead=0;swimlaneBody=0;fillColor=none;collapsible=0;dropTarget=0;points=[[0,0.5],[1,0.5]];portConstraint=eastwest;top=0;left=0;right=0;bottom=0;labelBackgroundColor=none;strokeColor=#E07A5F;fontColor=#393C56;" vertex="1" parent="gPIm2RjQlK1SHXglzXT1-173">
          <mxGeometry y="120" width="180" height="30" as="geometry" />
        </mxCell>
        <mxCell id="gPIm2RjQlK1SHXglzXT1-184" value="" style="shape=partialRectangle;connectable=0;fillColor=none;top=0;left=0;bottom=0;right=0;editable=1;overflow=hidden;whiteSpace=wrap;html=1;labelBackgroundColor=none;strokeColor=#E07A5F;fontColor=#393C56;" vertex="1" parent="gPIm2RjQlK1SHXglzXT1-183">
          <mxGeometry width="30" height="30" as="geometry">
            <mxRectangle width="30" height="30" as="alternateBounds" />
          </mxGeometry>
        </mxCell>
        <mxCell id="gPIm2RjQlK1SHXglzXT1-185" value="Category" style="shape=partialRectangle;connectable=0;fillColor=none;top=0;left=0;bottom=0;right=0;align=left;spacingLeft=6;overflow=hidden;whiteSpace=wrap;html=1;labelBackgroundColor=none;strokeColor=#E07A5F;fontColor=#393C56;" vertex="1" parent="gPIm2RjQlK1SHXglzXT1-183">
          <mxGeometry x="30" width="150" height="30" as="geometry">
            <mxRectangle width="150" height="30" as="alternateBounds" />
          </mxGeometry>
        </mxCell>
        <mxCell id="gPIm2RjQlK1SHXglzXT1-241" style="shape=tableRow;horizontal=0;startSize=0;swimlaneHead=0;swimlaneBody=0;fillColor=none;collapsible=0;dropTarget=0;points=[[0,0.5],[1,0.5]];portConstraint=eastwest;top=0;left=0;right=0;bottom=0;labelBackgroundColor=none;strokeColor=#E07A5F;fontColor=#393C56;" vertex="1" parent="gPIm2RjQlK1SHXglzXT1-173">
          <mxGeometry y="150" width="180" height="30" as="geometry" />
        </mxCell>
        <mxCell id="gPIm2RjQlK1SHXglzXT1-242" value="FK" style="shape=partialRectangle;connectable=0;fillColor=none;top=0;left=0;bottom=0;right=0;editable=1;overflow=hidden;whiteSpace=wrap;html=1;labelBackgroundColor=none;strokeColor=#E07A5F;fontColor=#393C56;" vertex="1" parent="gPIm2RjQlK1SHXglzXT1-241">
          <mxGeometry width="30" height="30" as="geometry">
            <mxRectangle width="30" height="30" as="alternateBounds" />
          </mxGeometry>
        </mxCell>
        <mxCell id="gPIm2RjQlK1SHXglzXT1-243" value="Branch_ID" style="shape=partialRectangle;connectable=0;fillColor=none;top=0;left=0;bottom=0;right=0;align=left;spacingLeft=6;overflow=hidden;whiteSpace=wrap;html=1;labelBackgroundColor=none;strokeColor=#E07A5F;fontColor=#393C56;" vertex="1" parent="gPIm2RjQlK1SHXglzXT1-241">
          <mxGeometry x="30" width="150" height="30" as="geometry">
            <mxRectangle width="150" height="30" as="alternateBounds" />
          </mxGeometry>
        </mxCell>
        <mxCell id="gPIm2RjQlK1SHXglzXT1-245" style="shape=tableRow;horizontal=0;startSize=0;swimlaneHead=0;swimlaneBody=0;fillColor=none;collapsible=0;dropTarget=0;points=[[0,0.5],[1,0.5]];portConstraint=eastwest;top=0;left=0;right=0;bottom=0;labelBackgroundColor=none;strokeColor=#E07A5F;fontColor=#393C56;" vertex="1" parent="gPIm2RjQlK1SHXglzXT1-173">
          <mxGeometry y="180" width="180" height="30" as="geometry" />
        </mxCell>
        <mxCell id="gPIm2RjQlK1SHXglzXT1-246" value="FK" style="shape=partialRectangle;connectable=0;fillColor=none;top=0;left=0;bottom=0;right=0;editable=1;overflow=hidden;whiteSpace=wrap;html=1;labelBackgroundColor=none;strokeColor=#E07A5F;fontColor=#393C56;" vertex="1" parent="gPIm2RjQlK1SHXglzXT1-245">
          <mxGeometry width="30" height="30" as="geometry">
            <mxRectangle width="30" height="30" as="alternateBounds" />
          </mxGeometry>
        </mxCell>
        <mxCell id="gPIm2RjQlK1SHXglzXT1-247" value="Order_ID" style="shape=partialRectangle;connectable=0;fillColor=none;top=0;left=0;bottom=0;right=0;align=left;spacingLeft=6;overflow=hidden;whiteSpace=wrap;html=1;labelBackgroundColor=none;strokeColor=#E07A5F;fontColor=#393C56;" vertex="1" parent="gPIm2RjQlK1SHXglzXT1-245">
          <mxGeometry x="30" width="150" height="30" as="geometry">
            <mxRectangle width="150" height="30" as="alternateBounds" />
          </mxGeometry>
        </mxCell>
        <mxCell id="gPIm2RjQlK1SHXglzXT1-186" value="Customer" style="shape=table;startSize=30;container=1;collapsible=1;childLayout=tableLayout;fixedRows=1;rowLines=0;fontStyle=1;align=center;resizeLast=1;html=1;labelBackgroundColor=none;fillColor=#F2CC8F;strokeColor=#E07A5F;fontColor=#393C56;" vertex="1" parent="1">
          <mxGeometry x="1750" y="630" width="180" height="120" as="geometry" />
        </mxCell>
        <mxCell id="gPIm2RjQlK1SHXglzXT1-187" value="" style="shape=tableRow;horizontal=0;startSize=0;swimlaneHead=0;swimlaneBody=0;fillColor=none;collapsible=0;dropTarget=0;points=[[0,0.5],[1,0.5]];portConstraint=eastwest;top=0;left=0;right=0;bottom=1;labelBackgroundColor=none;strokeColor=#E07A5F;fontColor=#393C56;" vertex="1" parent="gPIm2RjQlK1SHXglzXT1-186">
          <mxGeometry y="30" width="180" height="30" as="geometry" />
        </mxCell>
        <mxCell id="gPIm2RjQlK1SHXglzXT1-188" value="PK" style="shape=partialRectangle;connectable=0;fillColor=none;top=0;left=0;bottom=0;right=0;fontStyle=1;overflow=hidden;whiteSpace=wrap;html=1;labelBackgroundColor=none;strokeColor=#E07A5F;fontColor=#393C56;" vertex="1" parent="gPIm2RjQlK1SHXglzXT1-187">
          <mxGeometry width="30" height="30" as="geometry">
            <mxRectangle width="30" height="30" as="alternateBounds" />
          </mxGeometry>
        </mxCell>
        <mxCell id="gPIm2RjQlK1SHXglzXT1-189" value="Code" style="shape=partialRectangle;connectable=0;fillColor=none;top=0;left=0;bottom=0;right=0;align=left;spacingLeft=6;fontStyle=5;overflow=hidden;whiteSpace=wrap;html=1;labelBackgroundColor=none;strokeColor=#E07A5F;fontColor=#393C56;" vertex="1" parent="gPIm2RjQlK1SHXglzXT1-187">
          <mxGeometry x="30" width="150" height="30" as="geometry">
            <mxRectangle width="150" height="30" as="alternateBounds" />
          </mxGeometry>
        </mxCell>
        <mxCell id="gPIm2RjQlK1SHXglzXT1-190" value="" style="shape=tableRow;horizontal=0;startSize=0;swimlaneHead=0;swimlaneBody=0;fillColor=none;collapsible=0;dropTarget=0;points=[[0,0.5],[1,0.5]];portConstraint=eastwest;top=0;left=0;right=0;bottom=0;labelBackgroundColor=none;strokeColor=#E07A5F;fontColor=#393C56;" vertex="1" parent="gPIm2RjQlK1SHXglzXT1-186">
          <mxGeometry y="60" width="180" height="30" as="geometry" />
        </mxCell>
        <mxCell id="gPIm2RjQlK1SHXglzXT1-191" value="" style="shape=partialRectangle;connectable=0;fillColor=none;top=0;left=0;bottom=0;right=0;editable=1;overflow=hidden;whiteSpace=wrap;html=1;labelBackgroundColor=none;strokeColor=#E07A5F;fontColor=#393C56;" vertex="1" parent="gPIm2RjQlK1SHXglzXT1-190">
          <mxGeometry width="30" height="30" as="geometry">
            <mxRectangle width="30" height="30" as="alternateBounds" />
          </mxGeometry>
        </mxCell>
        <mxCell id="gPIm2RjQlK1SHXglzXT1-192" value="Name" style="shape=partialRectangle;connectable=0;fillColor=none;top=0;left=0;bottom=0;right=0;align=left;spacingLeft=6;overflow=hidden;whiteSpace=wrap;html=1;labelBackgroundColor=none;strokeColor=#E07A5F;fontColor=#393C56;" vertex="1" parent="gPIm2RjQlK1SHXglzXT1-190">
          <mxGeometry x="30" width="150" height="30" as="geometry">
            <mxRectangle width="150" height="30" as="alternateBounds" />
          </mxGeometry>
        </mxCell>
        <mxCell id="gPIm2RjQlK1SHXglzXT1-193" value="" style="shape=tableRow;horizontal=0;startSize=0;swimlaneHead=0;swimlaneBody=0;fillColor=none;collapsible=0;dropTarget=0;points=[[0,0.5],[1,0.5]];portConstraint=eastwest;top=0;left=0;right=0;bottom=0;labelBackgroundColor=none;strokeColor=#E07A5F;fontColor=#393C56;" vertex="1" parent="gPIm2RjQlK1SHXglzXT1-186">
          <mxGeometry y="90" width="180" height="30" as="geometry" />
        </mxCell>
        <mxCell id="gPIm2RjQlK1SHXglzXT1-194" value="" style="shape=partialRectangle;connectable=0;fillColor=none;top=0;left=0;bottom=0;right=0;editable=1;overflow=hidden;whiteSpace=wrap;html=1;labelBackgroundColor=none;strokeColor=#E07A5F;fontColor=#393C56;" vertex="1" parent="gPIm2RjQlK1SHXglzXT1-193">
          <mxGeometry width="30" height="30" as="geometry">
            <mxRectangle width="30" height="30" as="alternateBounds" />
          </mxGeometry>
        </mxCell>
        <mxCell id="gPIm2RjQlK1SHXglzXT1-195" value="Contact no." style="shape=partialRectangle;connectable=0;fillColor=none;top=0;left=0;bottom=0;right=0;align=left;spacingLeft=6;overflow=hidden;whiteSpace=wrap;html=1;labelBackgroundColor=none;strokeColor=#E07A5F;fontColor=#393C56;" vertex="1" parent="gPIm2RjQlK1SHXglzXT1-193">
          <mxGeometry x="30" width="150" height="30" as="geometry">
            <mxRectangle width="150" height="30" as="alternateBounds" />
          </mxGeometry>
        </mxCell>
        <mxCell id="gPIm2RjQlK1SHXglzXT1-199" value="Order" style="shape=table;startSize=30;container=1;collapsible=1;childLayout=tableLayout;fixedRows=1;rowLines=0;fontStyle=1;align=center;resizeLast=1;html=1;labelBackgroundColor=none;fillColor=#F2CC8F;strokeColor=#E07A5F;fontColor=#393C56;" vertex="1" parent="1">
          <mxGeometry x="1750" y="351.66" width="180" height="210" as="geometry" />
        </mxCell>
        <mxCell id="gPIm2RjQlK1SHXglzXT1-200" value="" style="shape=tableRow;horizontal=0;startSize=0;swimlaneHead=0;swimlaneBody=0;fillColor=none;collapsible=0;dropTarget=0;points=[[0,0.5],[1,0.5]];portConstraint=eastwest;top=0;left=0;right=0;bottom=1;labelBackgroundColor=none;strokeColor=#E07A5F;fontColor=#393C56;" vertex="1" parent="gPIm2RjQlK1SHXglzXT1-199">
          <mxGeometry y="30" width="180" height="30" as="geometry" />
        </mxCell>
        <mxCell id="gPIm2RjQlK1SHXglzXT1-201" value="PK" style="shape=partialRectangle;connectable=0;fillColor=none;top=0;left=0;bottom=0;right=0;fontStyle=1;overflow=hidden;whiteSpace=wrap;html=1;labelBackgroundColor=none;strokeColor=#E07A5F;fontColor=#393C56;" vertex="1" parent="gPIm2RjQlK1SHXglzXT1-200">
          <mxGeometry width="30" height="30" as="geometry">
            <mxRectangle width="30" height="30" as="alternateBounds" />
          </mxGeometry>
        </mxCell>
        <mxCell id="gPIm2RjQlK1SHXglzXT1-202" value="ID" style="shape=partialRectangle;connectable=0;fillColor=none;top=0;left=0;bottom=0;right=0;align=left;spacingLeft=6;fontStyle=5;overflow=hidden;whiteSpace=wrap;html=1;labelBackgroundColor=none;strokeColor=#E07A5F;fontColor=#393C56;" vertex="1" parent="gPIm2RjQlK1SHXglzXT1-200">
          <mxGeometry x="30" width="150" height="30" as="geometry">
            <mxRectangle width="150" height="30" as="alternateBounds" />
          </mxGeometry>
        </mxCell>
        <mxCell id="gPIm2RjQlK1SHXglzXT1-203" value="" style="shape=tableRow;horizontal=0;startSize=0;swimlaneHead=0;swimlaneBody=0;fillColor=none;collapsible=0;dropTarget=0;points=[[0,0.5],[1,0.5]];portConstraint=eastwest;top=0;left=0;right=0;bottom=0;labelBackgroundColor=none;strokeColor=#E07A5F;fontColor=#393C56;" vertex="1" parent="gPIm2RjQlK1SHXglzXT1-199">
          <mxGeometry y="60" width="180" height="30" as="geometry" />
        </mxCell>
        <mxCell id="gPIm2RjQlK1SHXglzXT1-204" value="" style="shape=partialRectangle;connectable=0;fillColor=none;top=0;left=0;bottom=0;right=0;editable=1;overflow=hidden;whiteSpace=wrap;html=1;labelBackgroundColor=none;strokeColor=#E07A5F;fontColor=#393C56;" vertex="1" parent="gPIm2RjQlK1SHXglzXT1-203">
          <mxGeometry width="30" height="30" as="geometry">
            <mxRectangle width="30" height="30" as="alternateBounds" />
          </mxGeometry>
        </mxCell>
        <mxCell id="gPIm2RjQlK1SHXglzXT1-205" value="Address" style="shape=partialRectangle;connectable=0;fillColor=none;top=0;left=0;bottom=0;right=0;align=left;spacingLeft=6;overflow=hidden;whiteSpace=wrap;html=1;labelBackgroundColor=none;strokeColor=#E07A5F;fontColor=#393C56;" vertex="1" parent="gPIm2RjQlK1SHXglzXT1-203">
          <mxGeometry x="30" width="150" height="30" as="geometry">
            <mxRectangle width="150" height="30" as="alternateBounds" />
          </mxGeometry>
        </mxCell>
        <mxCell id="gPIm2RjQlK1SHXglzXT1-206" value="" style="shape=tableRow;horizontal=0;startSize=0;swimlaneHead=0;swimlaneBody=0;fillColor=none;collapsible=0;dropTarget=0;points=[[0,0.5],[1,0.5]];portConstraint=eastwest;top=0;left=0;right=0;bottom=0;labelBackgroundColor=none;strokeColor=#E07A5F;fontColor=#393C56;" vertex="1" parent="gPIm2RjQlK1SHXglzXT1-199">
          <mxGeometry y="90" width="180" height="30" as="geometry" />
        </mxCell>
        <mxCell id="gPIm2RjQlK1SHXglzXT1-207" value="" style="shape=partialRectangle;connectable=0;fillColor=none;top=0;left=0;bottom=0;right=0;editable=1;overflow=hidden;whiteSpace=wrap;html=1;labelBackgroundColor=none;strokeColor=#E07A5F;fontColor=#393C56;" vertex="1" parent="gPIm2RjQlK1SHXglzXT1-206">
          <mxGeometry width="30" height="30" as="geometry">
            <mxRectangle width="30" height="30" as="alternateBounds" />
          </mxGeometry>
        </mxCell>
        <mxCell id="gPIm2RjQlK1SHXglzXT1-208" value="Total bill" style="shape=partialRectangle;connectable=0;fillColor=none;top=0;left=0;bottom=0;right=0;align=left;spacingLeft=6;overflow=hidden;whiteSpace=wrap;html=1;labelBackgroundColor=none;strokeColor=#E07A5F;fontColor=#393C56;" vertex="1" parent="gPIm2RjQlK1SHXglzXT1-206">
          <mxGeometry x="30" width="150" height="30" as="geometry">
            <mxRectangle width="150" height="30" as="alternateBounds" />
          </mxGeometry>
        </mxCell>
        <mxCell id="gPIm2RjQlK1SHXglzXT1-209" value="" style="shape=tableRow;horizontal=0;startSize=0;swimlaneHead=0;swimlaneBody=0;fillColor=none;collapsible=0;dropTarget=0;points=[[0,0.5],[1,0.5]];portConstraint=eastwest;top=0;left=0;right=0;bottom=0;labelBackgroundColor=none;strokeColor=#E07A5F;fontColor=#393C56;" vertex="1" parent="gPIm2RjQlK1SHXglzXT1-199">
          <mxGeometry y="120" width="180" height="30" as="geometry" />
        </mxCell>
        <mxCell id="gPIm2RjQlK1SHXglzXT1-210" value="" style="shape=partialRectangle;connectable=0;fillColor=none;top=0;left=0;bottom=0;right=0;editable=1;overflow=hidden;whiteSpace=wrap;html=1;labelBackgroundColor=none;strokeColor=#E07A5F;fontColor=#393C56;" vertex="1" parent="gPIm2RjQlK1SHXglzXT1-209">
          <mxGeometry width="30" height="30" as="geometry">
            <mxRectangle width="30" height="30" as="alternateBounds" />
          </mxGeometry>
        </mxCell>
        <mxCell id="gPIm2RjQlK1SHXglzXT1-211" value="Date" style="shape=partialRectangle;connectable=0;fillColor=none;top=0;left=0;bottom=0;right=0;align=left;spacingLeft=6;overflow=hidden;whiteSpace=wrap;html=1;labelBackgroundColor=none;strokeColor=#E07A5F;fontColor=#393C56;" vertex="1" parent="gPIm2RjQlK1SHXglzXT1-209">
          <mxGeometry x="30" width="150" height="30" as="geometry">
            <mxRectangle width="150" height="30" as="alternateBounds" />
          </mxGeometry>
        </mxCell>
        <mxCell id="gPIm2RjQlK1SHXglzXT1-212" style="shape=tableRow;horizontal=0;startSize=0;swimlaneHead=0;swimlaneBody=0;fillColor=none;collapsible=0;dropTarget=0;points=[[0,0.5],[1,0.5]];portConstraint=eastwest;top=0;left=0;right=0;bottom=0;labelBackgroundColor=none;strokeColor=#E07A5F;fontColor=#393C56;" vertex="1" parent="gPIm2RjQlK1SHXglzXT1-199">
          <mxGeometry y="150" width="180" height="30" as="geometry" />
        </mxCell>
        <mxCell id="gPIm2RjQlK1SHXglzXT1-213" style="shape=partialRectangle;connectable=0;fillColor=none;top=0;left=0;bottom=0;right=0;editable=1;overflow=hidden;whiteSpace=wrap;html=1;labelBackgroundColor=none;strokeColor=#E07A5F;fontColor=#393C56;" vertex="1" parent="gPIm2RjQlK1SHXglzXT1-212">
          <mxGeometry width="30" height="30" as="geometry">
            <mxRectangle width="30" height="30" as="alternateBounds" />
          </mxGeometry>
        </mxCell>
        <mxCell id="gPIm2RjQlK1SHXglzXT1-214" value="Time" style="shape=partialRectangle;connectable=0;fillColor=none;top=0;left=0;bottom=0;right=0;align=left;spacingLeft=6;overflow=hidden;whiteSpace=wrap;html=1;labelBackgroundColor=none;strokeColor=#E07A5F;fontColor=#393C56;" vertex="1" parent="gPIm2RjQlK1SHXglzXT1-212">
          <mxGeometry x="30" width="150" height="30" as="geometry">
            <mxRectangle width="150" height="30" as="alternateBounds" />
          </mxGeometry>
        </mxCell>
        <mxCell id="gPIm2RjQlK1SHXglzXT1-221" style="shape=tableRow;horizontal=0;startSize=0;swimlaneHead=0;swimlaneBody=0;fillColor=none;collapsible=0;dropTarget=0;points=[[0,0.5],[1,0.5]];portConstraint=eastwest;top=0;left=0;right=0;bottom=0;labelBackgroundColor=none;strokeColor=#E07A5F;fontColor=#393C56;" vertex="1" parent="gPIm2RjQlK1SHXglzXT1-199">
          <mxGeometry y="180" width="180" height="30" as="geometry" />
        </mxCell>
        <mxCell id="gPIm2RjQlK1SHXglzXT1-222" value="FK" style="shape=partialRectangle;connectable=0;fillColor=none;top=0;left=0;bottom=0;right=0;editable=1;overflow=hidden;whiteSpace=wrap;html=1;labelBackgroundColor=none;strokeColor=#E07A5F;fontColor=#393C56;" vertex="1" parent="gPIm2RjQlK1SHXglzXT1-221">
          <mxGeometry width="30" height="30" as="geometry">
            <mxRectangle width="30" height="30" as="alternateBounds" />
          </mxGeometry>
        </mxCell>
        <mxCell id="gPIm2RjQlK1SHXglzXT1-223" value="Customer_Code" style="shape=partialRectangle;connectable=0;fillColor=none;top=0;left=0;bottom=0;right=0;align=left;spacingLeft=6;overflow=hidden;whiteSpace=wrap;html=1;labelBackgroundColor=none;strokeColor=#E07A5F;fontColor=#393C56;" vertex="1" parent="gPIm2RjQlK1SHXglzXT1-221">
          <mxGeometry x="30" width="150" height="30" as="geometry">
            <mxRectangle width="150" height="30" as="alternateBounds" />
          </mxGeometry>
        </mxCell>
        <mxCell id="gPIm2RjQlK1SHXglzXT1-226" value="" style="endArrow=classic;html=1;rounded=0;entryX=0;entryY=0.5;entryDx=0;entryDy=0;exitX=0;exitY=0.5;exitDx=0;exitDy=0;curved=1;labelBackgroundColor=none;strokeColor=#E07A5F;fontColor=default;" edge="1" parent="1" source="gPIm2RjQlK1SHXglzXT1-111" target="gPIm2RjQlK1SHXglzXT1-107">
          <mxGeometry width="50" height="50" relative="1" as="geometry">
            <mxPoint x="1090" y="650" as="sourcePoint" />
            <mxPoint x="1140" y="600" as="targetPoint" />
            <Array as="points">
              <mxPoint x="1160" y="520" />
            </Array>
          </mxGeometry>
        </mxCell>
        <mxCell id="gPIm2RjQlK1SHXglzXT1-233" value="" style="endArrow=classic;html=1;rounded=0;entryX=0;entryY=0.5;entryDx=0;entryDy=0;exitX=0;exitY=0.5;exitDx=0;exitDy=0;curved=1;labelBackgroundColor=none;strokeColor=#E07A5F;fontColor=default;" edge="1" parent="1" source="gPIm2RjQlK1SHXglzXT1-98" target="gPIm2RjQlK1SHXglzXT1-230">
          <mxGeometry width="50" height="50" relative="1" as="geometry">
            <mxPoint x="1140" y="910" as="sourcePoint" />
            <mxPoint x="1190" y="860" as="targetPoint" />
            <Array as="points">
              <mxPoint x="1060" y="590" />
            </Array>
          </mxGeometry>
        </mxCell>
        <mxCell id="gPIm2RjQlK1SHXglzXT1-148" value="Delivery" style="shape=table;startSize=30;container=1;collapsible=1;childLayout=tableLayout;fixedRows=1;rowLines=0;fontStyle=1;align=center;resizeLast=1;html=1;labelBackgroundColor=none;fillColor=#F2CC8F;strokeColor=#E07A5F;fontColor=#393C56;" vertex="1" parent="1">
          <mxGeometry x="1470" y="455" width="180" height="120" as="geometry" />
        </mxCell>
        <mxCell id="gPIm2RjQlK1SHXglzXT1-152" value="" style="shape=tableRow;horizontal=0;startSize=0;swimlaneHead=0;swimlaneBody=0;fillColor=none;collapsible=0;dropTarget=0;points=[[0,0.5],[1,0.5]];portConstraint=eastwest;top=0;left=0;right=0;bottom=0;labelBackgroundColor=none;strokeColor=#E07A5F;fontColor=#393C56;" vertex="1" parent="gPIm2RjQlK1SHXglzXT1-148">
          <mxGeometry y="30" width="180" height="30" as="geometry" />
        </mxCell>
        <mxCell id="gPIm2RjQlK1SHXglzXT1-153" value="&lt;b&gt;PK&lt;/b&gt;" style="shape=partialRectangle;connectable=0;fillColor=none;top=0;left=0;bottom=0;right=0;editable=1;overflow=hidden;whiteSpace=wrap;html=1;rowspan=2;colspan=1;labelBackgroundColor=none;strokeColor=#E07A5F;fontColor=#393C56;" vertex="1" parent="gPIm2RjQlK1SHXglzXT1-152">
          <mxGeometry width="30" height="60" as="geometry">
            <mxRectangle width="30" height="30" as="alternateBounds" />
          </mxGeometry>
        </mxCell>
        <mxCell id="gPIm2RjQlK1SHXglzXT1-154" value="&lt;u&gt;Name&lt;/u&gt;" style="shape=partialRectangle;connectable=0;fillColor=none;top=0;left=0;bottom=0;right=0;align=left;spacingLeft=6;overflow=hidden;whiteSpace=wrap;html=1;labelBackgroundColor=none;strokeColor=#E07A5F;fontColor=#393C56;" vertex="1" parent="gPIm2RjQlK1SHXglzXT1-152">
          <mxGeometry x="30" width="150" height="30" as="geometry">
            <mxRectangle width="150" height="30" as="alternateBounds" />
          </mxGeometry>
        </mxCell>
        <mxCell id="gPIm2RjQlK1SHXglzXT1-237" style="shape=tableRow;horizontal=0;startSize=0;swimlaneHead=0;swimlaneBody=0;fillColor=none;collapsible=0;dropTarget=0;points=[[0,0.5],[1,0.5]];portConstraint=eastwest;top=0;left=0;right=0;bottom=0;labelBackgroundColor=none;strokeColor=#E07A5F;fontColor=#393C56;" vertex="1" parent="gPIm2RjQlK1SHXglzXT1-148">
          <mxGeometry y="60" width="180" height="30" as="geometry" />
        </mxCell>
        <mxCell id="gPIm2RjQlK1SHXglzXT1-238" style="shape=partialRectangle;connectable=0;fillColor=none;top=0;left=0;bottom=0;right=0;editable=1;overflow=hidden;whiteSpace=wrap;html=1;labelBackgroundColor=none;strokeColor=#E07A5F;fontColor=#393C56;" vertex="1" visible="0" parent="gPIm2RjQlK1SHXglzXT1-237">
          <mxGeometry width="30" height="30" as="geometry">
            <mxRectangle width="30" height="30" as="alternateBounds" />
          </mxGeometry>
        </mxCell>
        <mxCell id="gPIm2RjQlK1SHXglzXT1-239" value="&lt;u&gt;Contact no.&lt;/u&gt;" style="shape=partialRectangle;connectable=0;fillColor=none;top=0;left=0;bottom=0;right=0;align=left;spacingLeft=6;overflow=hidden;whiteSpace=wrap;html=1;labelBackgroundColor=none;strokeColor=#E07A5F;fontColor=#393C56;" vertex="1" parent="gPIm2RjQlK1SHXglzXT1-237">
          <mxGeometry x="30" width="150" height="30" as="geometry">
            <mxRectangle width="150" height="30" as="alternateBounds" />
          </mxGeometry>
        </mxCell>
        <mxCell id="gPIm2RjQlK1SHXglzXT1-234" style="shape=tableRow;horizontal=0;startSize=0;swimlaneHead=0;swimlaneBody=0;fillColor=none;collapsible=0;dropTarget=0;points=[[0,0.5],[1,0.5]];portConstraint=eastwest;top=0;left=0;right=0;bottom=0;labelBackgroundColor=none;strokeColor=#E07A5F;fontColor=#393C56;" vertex="1" parent="gPIm2RjQlK1SHXglzXT1-148">
          <mxGeometry y="90" width="180" height="30" as="geometry" />
        </mxCell>
        <mxCell id="gPIm2RjQlK1SHXglzXT1-235" value="FK" style="shape=partialRectangle;connectable=0;fillColor=none;top=1;left=0;bottom=0;right=0;editable=1;overflow=hidden;whiteSpace=wrap;html=1;labelBackgroundColor=none;strokeColor=#E07A5F;fontColor=#393C56;" vertex="1" parent="gPIm2RjQlK1SHXglzXT1-234">
          <mxGeometry width="30" height="30" as="geometry">
            <mxRectangle width="30" height="30" as="alternateBounds" />
          </mxGeometry>
        </mxCell>
        <mxCell id="gPIm2RjQlK1SHXglzXT1-236" value="Branch_ID" style="shape=partialRectangle;connectable=0;fillColor=none;top=1;left=0;bottom=0;right=0;align=left;spacingLeft=6;overflow=hidden;whiteSpace=wrap;html=1;labelBackgroundColor=none;strokeColor=#E07A5F;fontColor=#393C56;" vertex="1" parent="gPIm2RjQlK1SHXglzXT1-234">
          <mxGeometry x="30" width="150" height="30" as="geometry">
            <mxRectangle width="150" height="30" as="alternateBounds" />
          </mxGeometry>
        </mxCell>
        <mxCell id="gPIm2RjQlK1SHXglzXT1-240" value="" style="endArrow=classic;html=1;rounded=0;entryX=0;entryY=0.5;entryDx=0;entryDy=0;exitX=1;exitY=0.5;exitDx=0;exitDy=0;curved=1;labelBackgroundColor=none;strokeColor=#E07A5F;fontColor=default;" edge="1" parent="1" source="gPIm2RjQlK1SHXglzXT1-98" target="gPIm2RjQlK1SHXglzXT1-234">
          <mxGeometry width="50" height="50" relative="1" as="geometry">
            <mxPoint x="1370" y="570" as="sourcePoint" />
            <mxPoint x="1420" y="520" as="targetPoint" />
            <Array as="points">
              <mxPoint x="1410" y="450" />
            </Array>
          </mxGeometry>
        </mxCell>
        <mxCell id="gPIm2RjQlK1SHXglzXT1-244" value="" style="endArrow=classic;html=1;rounded=0;entryX=0;entryY=0.5;entryDx=0;entryDy=0;exitX=1;exitY=0.5;exitDx=0;exitDy=0;curved=1;labelBackgroundColor=none;strokeColor=#E07A5F;fontColor=default;" edge="1" parent="1" source="gPIm2RjQlK1SHXglzXT1-98" target="gPIm2RjQlK1SHXglzXT1-241">
          <mxGeometry width="50" height="50" relative="1" as="geometry">
            <mxPoint x="1370" y="490" as="sourcePoint" />
            <mxPoint x="1420" y="440" as="targetPoint" />
          </mxGeometry>
        </mxCell>
        <mxCell id="gPIm2RjQlK1SHXglzXT1-248" value="" style="endArrow=classic;html=1;rounded=0;entryX=1;entryY=0.5;entryDx=0;entryDy=0;exitX=0;exitY=0.5;exitDx=0;exitDy=0;curved=1;labelBackgroundColor=none;strokeColor=#E07A5F;fontColor=default;" edge="1" parent="1" source="gPIm2RjQlK1SHXglzXT1-200" target="gPIm2RjQlK1SHXglzXT1-245">
          <mxGeometry width="50" height="50" relative="1" as="geometry">
            <mxPoint x="1710" y="500" as="sourcePoint" />
            <mxPoint x="1760" y="450" as="targetPoint" />
          </mxGeometry>
        </mxCell>
        <mxCell id="gPIm2RjQlK1SHXglzXT1-249" value="" style="endArrow=classic;html=1;rounded=0;entryX=0;entryY=0.5;entryDx=0;entryDy=0;exitX=0;exitY=0.5;exitDx=0;exitDy=0;curved=1;labelBackgroundColor=none;strokeColor=#E07A5F;fontColor=default;" edge="1" parent="1" source="gPIm2RjQlK1SHXglzXT1-187" target="gPIm2RjQlK1SHXglzXT1-221">
          <mxGeometry width="50" height="50" relative="1" as="geometry">
            <mxPoint x="1630" y="790" as="sourcePoint" />
            <mxPoint x="1680" y="740" as="targetPoint" />
            <Array as="points">
              <mxPoint x="1710" y="620" />
            </Array>
          </mxGeometry>
        </mxCell>
      </root>
    </mxGraphModel>
  </diagram>
</mxfile>
